<?xml version="1.0" encoding="UTF-8"?>
<svg xmlns="http://www.w3.org/2000/svg" viewBox="0 0 512 512" width="512" height="512">
<path d="M399.83 128.67C397.85 127.66 396.24 125.33 394.51 123.81C391.21 120.9 383.06 114.32 378.75 114.32C391.06 121.31 398.78 128.8 405.53 141.44C403.77 141.63 399.89 141.82 398.61 143.28C398.3 141.03 397.99 138.78 397.68 136.53C397.13 137.23 396.59 137.94 396.04 138.64C394.91 137.82 395 134.05 393.23 135.36C393.47 135.75 393.7 136.14 393.94 136.53C392.53 136.74 391.13 136.94 389.73 137.14C389.1 136.63 388.48 136.11 387.86 135.6C387.08 135.75 386.3 135.9 385.52 136.06C384.4 135.53 384.28 135.04 383.65 136.24C383.1 135.64 382.55 135.03 382 134.43C382 133.81 382.01 133.18 382.01 132.56C380.45 131.35 377.96 132.63 376.64 133.87C375.62 132.81 374.61 131.75 373.6 130.69C372.74 132.11 371.88 133.54 371.02 134.96C369.21 133.33 368.95 132.3 365.88 133.86C364.89 132.35 363.94 131.95 362.14 132.08C361.67 134.69 361.21 137.31 360.74 139.92C359.53 138.75 358.46 137.51 356.88 138.64C357.51 140.17 359.72 139.84 361.08 140.74C363.73 142.48 366.77 145.17 368.69 147.76C366.92 147.14 366.39 145.37 364.84 144.58C363.26 143.78 358.55 141.1 356.72 141.67C355.02 141.23 353.32 140.79 351.62 140.35C349.38 137.67 344.66 139.11 341.57 138.27C341.33 138.68 341.1 139.09 340.87 139.5C337.34 140.7 333.32 140.34 329.82 141.73C322.2 144.73 315.34 149.71 310.3 156.23C308.8 158.17 307.87 160.5 306.33 162.36C305.53 162.71 304.73 163.07 303.93 163.42C304.73 162.33 305.54 161.24 306.35 160.15C306.07 157.39 308.34 154.97 309.55 152.66C309.29 150.95 309.03 149.24 308.77 147.52C305.54 147 307.37 146.28 306.5 144.62C305.35 145.12 305.81 145.13 304.63 145.58C305.1 146.59 302.52 148.27 301.35 148.27C300.42 148.27 300.16 147.21 299.32 147.05C298.62 148.53 299.24 149.32 299.75 150.79C297.36 151.32 298.32 152.4 295.47 153.13C295.57 153.91 295.68 154.69 295.78 155.47C294.15 154.95 294.3 152.9 292.47 153.3C293.09 156.3 292.1 155.65 289.81 155.47C290.07 156.02 290.34 156.57 290.6 157.12C289.51 156.09 288.42 155.06 287.33 154.02C286.7 155.43 286.08 156.84 285.46 158.25C283.72 157.67 283.18 158.03 281.72 157.67C280.18 157.3 279.4 154.92 278.39 157.81C279.16 158.12 279.93 158.43 280.71 158.74C280.18 160.03 276.67 161.34 275.03 162.02C274.75 165.95 270.55 166.08 267.66 166.22C267.29 168.55 266.72 169.31 264.36 169.5C264.53 170.57 264.71 171.65 264.88 172.72C263.17 170.97 263.2 170.05 260.21 170.3C260.74 170.65 262.49 170.65 262.33 171.8C262.07 173.63 259.21 172.56 258.34 172.2C257.71 173.09 257.09 173.98 256.47 174.86C254.65 173.34 253.82 175.24 252.31 174.74C251.17 174.37 251.92 173.08 250.32 173.24C250.25 174.81 250.55 174.72 252.07 175.11C251.76 176.76 251.11 177.36 249.45 177.66C249.3 176.99 249.14 176.32 248.99 175.64C247.97 176.71 246.96 177.78 245.95 178.85C244.79 179.65 245.93 176.92 244.44 177.46C244.05 177.6 243.36 179.38 243 179.78C241.05 180.47 240.73 180.91 239.63 179.27C239.32 179.91 239.01 180.56 238.7 181.2C237.73 181.04 236.75 180.88 235.78 180.72C235.98 182.92 235.28 184.18 234.49 186.21C234.21 185.16 233.93 184.11 233.64 183.06C231.91 184.15 229.74 183.61 228.41 186.18C226.45 185.08 227.13 184.13 226.38 182.59C226.33 183.37 226.28 184.15 226.23 184.93C225.17 185.08 224.1 185.24 223.04 185.4C224.32 186.8 225.61 188.2 226.9 189.6C223.37 190.64 220.44 186.14 217.74 184.16C212.86 180.59 205.76 178.58 199.92 177.1C186.13 173.61 175.91 179.51 166.53 188.74C164.41 190.83 161.94 192.59 160.14 194.98C157.64 198.3 155.95 202.22 153.6 205.66C145.59 199.69 122.4 196.83 115.44 205.29C113.21 207.05 109.97 211.94 107.31 211.74C106.93 213.63 106.54 215.53 106.16 217.42C104.36 207.36 106.93 193.01 107.61 182.59C108.43 169.82 110.22 156.38 115.31 144.53C133.64 101.87 185.96 101.62 225.14 101.04C235.89 100.88 246.66 100.58 257.4 100.87C268.92 101.19 280.48 100.77 292 101.03C319.61 101.64 350.61 100.52 376.29 111.62C383.13 114.57 396.72 121.54 399.83 128.67ZM176.91 112.8C160.91 114.97 142.52 118.61 133.73 133.97C129.52 141.32 127.38 150.34 134.22 156.94C139.27 161.8 145.76 161.6 152.11 163.13C167.15 166.74 187.04 159.06 198.48 149.15C202.65 145.54 207.63 140.68 209.29 135.23C210.32 131.86 208.66 128.06 206.98 125.21C201.06 115.19 188.06 111.29 176.91 112.8ZM352.05 136.77C351.88 134.75 350.57 135.77 349.26 134.86C348.59 134.39 348.98 132.69 348.51 133.49C347.21 133.44 347.88 134.41 348.01 135.57C345.32 135.57 342.62 135.57 339.93 135.57C340.79 136.73 349.87 137.51 351.85 136.97C353.03 138.15 354 137.96 355.59 137.74C354.17 136.83 353.82 136.57 352.05 136.77ZM227.1 140.36C224.63 140.65 221.44 140.76 219.52 142.6C217.77 144.27 217.68 146.68 217.85 148.92C218.46 156.98 225.92 160.65 233.43 158.32C237.04 157.2 237.18 152.63 236.91 149.63C236.37 143.8 233.59 139.59 227.1 140.36ZM106.12 238C106.49 250 106.85 262.01 107.22 274.01C106.93 274.49 106.64 274.97 106.35 275.45C106.28 262.97 106.2 250.48 106.12 238Z" fill="#bcf8f8" fill-rule="evenodd" stroke="#bcf8f8" stroke-width="0.25" stroke-linejoin="round"/>
<path d="M417.08 172.07C418.38 177.66 418.54 183.44 419.09 189.13C420.49 203.68 420.82 218.45 420.78 233.09C420.77 239.65 419.43 253.13 420.82 258.81C420.35 259.01 419.89 259.22 419.42 259.43C419.47 258.75 419.51 258.08 419.56 257.4C417.96 254.26 414.58 253.04 412.2 250.61C412.23 250.38 412.27 250.15 412.3 249.92C410.08 248.57 407.85 247.21 405.63 245.86C405.39 246.01 405.15 246.15 404.91 246.3C403.05 245.53 401.18 244.77 399.31 244C399.27 243.79 399.22 243.58 399.18 243.38C397.28 242.81 395.37 242.24 393.47 241.67C393.22 241.83 392.98 241.98 392.73 242.14C392.59 242.21 392.44 242.29 392.3 242.37C392.14 242.39 391.99 242.41 391.83 242.43C391.11 242.22 390.39 242.01 389.67 241.79C389.3 241.64 388.93 241.49 388.56 241.34C388.4 241.38 388.25 241.42 388.09 241.46C385.01 240.17 380.41 240.63 377.1 240.71C367.79 240.93 357.52 242.73 349.16 247C347.04 248.08 345.32 249.85 343.19 250.8C342.42 251.15 341.5 251.03 340.73 251.21C338.14 251.79 329.73 257.19 328.24 259.27C326.57 259.16 325.42 259.88 324.73 261.38C323.57 262.12 322.4 262.86 321.23 263.6C320.95 263.73 320.67 263.87 320.39 264.01C320.14 264.23 319.9 264.46 319.65 264.69C319.48 264.83 319.31 264.98 319.14 265.12C312.13 269.78 305.12 274.44 298.12 279.1C298.03 279.11 297.94 279.13 297.85 279.14C297.11 279.12 296.17 279.23 295.49 278.87C294.5 278.35 293.6 276.87 292.63 276.16C288.4 273.05 284.13 270.05 279.91 266.93C270.91 260.27 261.8 253.86 252.4 247.76C248.04 244.93 242.53 240.8 237.53 239.45C235.1 238.34 232.68 237.22 230.25 236.1C230.03 235.97 229.81 235.83 229.58 235.7C227.47 234.91 225.35 234.12 223.24 233.33C219.09 229.98 206.09 226.51 200.61 226.19C194.37 225.9 188.13 225.6 181.89 225.31C175.55 224.52 168.84 227.71 162.99 229.71C146.2 235.44 132.11 247.34 120.13 260.18C115.86 264.75 111.81 269.79 107.22 274.01C106.85 262.01 106.49 250 106.12 238C106.13 231.14 106.15 224.28 106.16 217.42C106.54 215.53 106.93 213.63 107.31 211.74C109.97 211.94 113.21 207.05 115.44 205.29C118.05 204.88 121.5 202.09 124.61 201.41C134.07 199.34 146.03 202.28 153.6 207.79C155.11 206.87 159.05 198.09 160.52 195.8C163.45 191.21 171.29 184.98 175.73 181.61C185.1 174.47 199.02 177.18 208.9 181.27C211.45 182.32 214.26 182.84 216.61 184.37C219.43 186.2 221.28 189.79 224.02 191.45C224.61 191.81 225.22 191.6 225.8 191.98C226.33 192.33 226.73 193.4 227.14 193.91C229.1 196.32 231.49 199.06 232.59 202.01C233.77 205.22 233.86 207.72 236.36 210.32C239.19 210.15 241.92 210.85 244.76 210.7C249.04 210.48 252.67 209.81 257.09 210.68C262.07 211.67 265.21 216.2 270.49 213.82C271.53 214.79 272.56 215.76 273.59 216.72C273.14 217.19 272.68 217.66 272.23 218.13C272.91 220.04 274.04 222.44 276.04 222.33C275.6 220.93 275.15 219.52 274.7 218.11C275.72 219.52 276.73 220.93 277.74 222.33C277.15 223.91 277.16 224.57 277.98 226.14C281.45 226.47 281.05 224.53 282.65 223.04C283.28 222.71 283.9 222.39 284.52 222.07C284.99 223.07 285.46 224.07 285.93 225.08C287.22 223.68 286.42 222.53 288.73 222.1C288.9 224.43 291 223.75 291.54 226.28C291.86 224.22 291.97 224.07 294.03 223.74C294.37 222.96 294.71 222.18 295.04 221.4C295.9 222.41 296.76 223.43 297.61 224.44C298.42 220.71 299.04 217.24 299.48 213.26C300.89 213.48 302.29 213.69 303.69 213.9C304.27 212.97 304.84 212.04 305.41 211.11C307.27 212.98 307.86 211.45 308.84 210.41C309.93 211.86 311.02 213.31 312.11 214.76C312.83 214.36 313.55 213.96 314.27 213.57C318.67 216.85 322.69 221.22 328.04 222.98C346.91 229.17 365.81 224.34 376.92 206.95C379.93 202.24 381 197.29 382.9 192.23C383.47 192.6 384.04 192.97 384.61 193.34C384.16 194.91 382.63 198.31 383.12 199.82C383.58 201.23 384.66 199.63 384.82 201.76C384.18 201.45 383.55 201.14 382.91 200.83C380.53 205.28 389.07 202.86 390.99 204.59C391.14 204.73 391.52 205.63 391.83 205.97C393.63 205.04 393.23 200.63 393.23 198.49C394.7 198.49 396.24 198.49 396.98 199.89C395.54 200.97 395.11 201.5 395.34 203.72C396.06 203.44 396.98 202.55 397.69 202.48C400.87 202.17 403.88 205.56 407.03 205.69C407.5 205.23 407.96 204.78 408.43 204.32C409.21 204.48 409.99 204.63 410.77 204.78C411.39 205.63 412.02 206.47 412.64 207.32C415.36 205.57 413.77 198.68 414.43 195.73C414.59 195.02 415.21 194.51 415.46 193.81C415.77 195.22 416.07 196.63 416.38 198.04C417.41 196.17 417 192.67 416.9 190.54C416.63 184.54 416.39 178.74 415.86 172.77C416.27 172.54 416.67 172.3 417.08 172.07Z" fill="#fffffe" fill-rule="evenodd" stroke="#fffffe" stroke-width="0.25" stroke-linejoin="round"/>
<path d="M388.09 241.46C388.25 241.42 388.4 241.38 388.56 241.34C388.93 241.49 389.3 241.64 389.67 241.79C388.34 242.86 385.98 241.99 384.12 241.93C379.23 241.76 374.59 241.83 369.74 242.44C377.74 242.91 385.75 243.38 393.76 243.84C393.14 243.45 392.53 243.06 391.91 242.67C392.04 242.57 392.17 242.47 392.3 242.37C392.44 242.29 392.59 242.21 392.73 242.14C392.82 242.25 392.91 242.36 393 242.47C394.51 242.71 395.55 242.68 396.27 244.08C397.29 244.05 398.3 244.03 399.31 244C401.18 244.77 403.05 245.53 404.91 246.3C406.47 247.31 408.04 248.31 409.6 249.32C409.7 249.44 409.81 249.56 409.91 249.69C410.04 249.64 410.17 249.59 410.3 249.55C410.93 249.9 411.57 250.25 412.2 250.61C414.58 253.04 417.96 254.26 419.56 257.4C419.51 258.08 419.47 258.75 419.42 259.43C419.5 259.72 419.58 260.01 419.65 260.3C419.82 266.37 419.61 272.38 419.58 278.44C419.57 280.5 419.54 284.7 418.25 286.16C418.24 286.7 418.23 287.23 418.22 287.77C414.97 286.31 413.09 282.73 409.19 282.18C404.82 281.56 399.59 284.8 397.44 284.52C396.59 285.38 395.73 286.24 394.87 287.09C394.59 287.72 394.32 288.34 394.04 288.96C393.85 288.81 393.66 288.65 393.47 288.5C393.16 289.12 392.85 289.74 392.53 290.37C392.07 290.37 391.6 290.37 391.13 290.37C391.23 291.15 391.34 291.93 391.44 292.71C390.79 293.41 390.14 294.11 389.49 294.81C389.8 295.43 390.11 296.06 390.42 296.68C388.74 299.8 386.64 302.8 385.46 306.18C384.61 308.63 384.6 311.8 383.4 313.98C381.11 314.01 379.33 310.56 377.4 309.26C373.71 306.75 367.51 305 363.08 304.8C355.44 304.46 348.32 305.46 341.49 308.96C339.84 309.81 337.01 310.69 335.74 311.69C334.14 312.95 333.82 314.61 331.51 314.92C331.12 315.59 330.73 316.26 330.35 316.94C327.39 317.78 327.51 321.2 325.2 321.69C324.66 323.48 324.04 324.8 322.63 325.67C323.48 328.23 321.73 331.03 321.21 333.62C320.52 337.11 321.39 341.33 320.09 344.61C319.61 343.05 319.13 341.49 318.66 339.93C318.27 342.5 317.88 345.07 317.49 347.65C316.01 346.79 314.53 345.93 313.04 345.07C311.93 346.71 309.05 343.54 307 344.93C305.35 344.82 303.7 344.7 302.06 344.59C301.2 343.97 300.34 343.35 299.48 342.74C297.93 343.67 296.37 344.61 294.81 345.54C295.55 346.62 294.97 346.71 294.71 347.9C293.66 349.23 292.46 350.62 291.07 349.75C291.07 352.49 287.96 354.37 287.21 357.4C285.12 358.66 270.66 357.15 267.22 357.19C254.8 357.32 242.28 357.4 229.82 357.9C224.11 358.13 217.16 360.11 211.63 358.77C210.65 355.03 210.12 350.71 207.83 347.41C206.82 345.94 202.58 343.03 202.93 342.03C197.83 342.34 196.46 340.82 191.47 343.55C191.27 341.8 191.99 340.96 192.98 339.48C193.1 340.1 193.22 340.72 193.34 341.33C197.05 337.63 196.73 327.11 194.98 322.4C193.98 321.65 192.58 322.08 193.58 320.53C193.14 320.63 192.71 320.74 192.28 320.85C189.38 315.47 187.24 316.25 183.95 312.96C185.63 310.44 192.06 308.75 194.98 309.05C193.33 310.2 187.95 310.7 187.73 312.81C188.51 312.81 189.29 312.81 190.07 312.81C190.41 314.41 191.56 315.8 193.11 316.32C192.91 313.75 190 314.36 191.47 311.41C192.88 311.72 194.28 312.03 195.68 312.34C196.53 311.05 197.81 311.24 197.08 309.85C198.02 309.59 198.96 309.33 199.89 309.07C201.05 310.77 202.62 309.23 204.19 308.93C207.53 308.29 213.44 308.94 215.32 305.8C217.59 305.93 219.08 305.77 220.46 304.39C224.54 305.21 227.36 302.41 231.45 303.23C232.85 302.76 234.26 302.29 235.66 301.82C235.89 300.68 236 300.3 234.53 300.14C240.36 298.73 246.19 297.33 252.03 295.92C251.23 297.45 249.28 297.09 249.07 297.61C250.13 297.85 251.2 298.08 252.26 298.32C251.51 295.13 257.93 297.13 259.27 294.58C261.3 294.58 263.33 294.58 265.35 294.58C265.51 293.95 265.66 293.33 265.82 292.71C264.76 292.86 263.71 293.02 262.66 293.17C265.93 290.65 272.39 290.16 276.49 288.82C282.73 286.79 288.74 283.06 294.78 280.96C294.94 281.29 295.11 281.62 295.28 281.95C295.43 281.64 295.59 281.33 295.74 281.01C296.68 280.94 297.61 280.87 298.55 280.79C298.41 280.23 298.26 279.66 298.12 279.1C305.12 274.44 312.13 269.78 319.14 265.12C319.31 264.98 319.48 264.83 319.65 264.69C319.9 264.46 320.14 264.23 320.39 264.01C320.67 263.87 320.95 263.73 321.23 263.6C322.4 262.86 323.57 262.12 324.73 261.38C325.42 259.88 326.57 259.16 328.24 259.27C329.73 257.19 338.14 251.79 340.73 251.21C341.5 251.03 342.42 251.15 343.19 250.8C345.32 249.85 347.04 248.08 349.16 247C357.52 242.73 367.79 240.93 377.1 240.71C380.41 240.63 385.01 240.17 388.09 241.46ZM361.67 244.3C359.46 244.31 355.1 245.27 354.19 247.02C356.69 246.12 359.18 245.21 361.67 244.3ZM357.54 273.46C356.34 274.34 355.15 275.22 353.96 276.11C354.74 276.11 355.52 276.11 356.3 276.11C354.74 275.1 356.65 274.94 357.7 274.86C357.93 275.17 358.17 275.47 358.4 275.78C359.1 275.5 359.8 275.23 360.5 274.95C361.21 274.32 361.91 273.69 362.61 273.07C364.79 272.44 366.97 271.82 369.15 271.2C369.23 270.91 369.31 270.62 369.39 270.34C376.19 273.36 382.08 263.32 384.81 258.81C383.82 252.66 377.45 251.96 371.96 252.16C360.22 252.58 351.91 259.91 343.58 267.15C341.7 268.78 339.33 270.69 338.22 272.97C337.5 274.43 338.68 275.8 338.29 275.97C339.39 276.42 340.48 276.86 341.57 277.3C343.02 276.56 349.8 275.09 349.52 273.53C351.48 274.5 352.79 274.22 354.19 272.6C355.31 272.88 356.42 273.17 357.54 273.46ZM222.33 315.15C220.78 315.85 219.22 316.55 217.66 317.25C216.57 317.25 215.48 317.25 214.39 317.25C211.94 318.12 208.72 319.09 206.44 317.95C206.12 318.58 205.81 319.2 205.5 319.82C202.9 319.62 203 319.09 200.12 320.53C206.26 321.75 208.78 319.06 213.45 319.06C215.36 319.06 217.03 319.45 218.59 317.95C220.7 318.09 223.13 318.17 224.91 316.79C224.05 316.24 223.19 315.69 222.33 315.15ZM196.62 321.69C196.98 319.79 195.41 317.12 193.58 316.79C194.88 318.45 194.39 320.3 196.62 321.69ZM208.07 404.95C208.54 404.85 209.01 404.76 209.48 404.66C214.32 405.09 219.37 404.44 224.19 405.17C227.34 405.65 229.17 407.07 231.22 404.92C231.61 405.53 232 406.13 232.39 406.73C228.8 407.82 225.5 406.45 222.25 406.01C219.99 405.7 216.93 405.9 214.47 405.73C212.51 405.59 209.52 406.15 208.07 404.95Z" fill="#8ccd78" fill-rule="evenodd" stroke="#8ccd78" stroke-width="0.25" stroke-linejoin="round"/>
<path d="M389.67 241.79C390.39 242.01 391.11 242.22 391.83 242.43C391.86 242.51 391.88 242.59 391.91 242.67C392.53 243.06 393.14 243.45 393.76 243.84C385.75 243.38 377.74 242.91 369.74 242.44C374.59 241.83 379.23 241.76 384.12 241.93C385.98 241.99 388.34 242.86 389.67 241.79ZM361.67 244.3C359.18 245.21 356.69 246.12 354.19 247.02C355.1 245.27 359.46 244.31 361.67 244.3ZM321.23 263.6C320.95 263.73 320.67 263.87 320.39 264.01C320.67 263.87 320.95 263.73 321.23 263.6ZM319.65 264.69C319.48 264.83 319.31 264.98 319.14 265.12C319.31 264.98 319.48 264.83 319.65 264.69ZM418.22 287.77C418.87 287.85 418.86 290.98 418.9 292C419.09 296.67 418.73 301.38 418.39 306.03C417.3 320.56 415.64 334.38 410.11 347.88C409.03 350.52 407.37 353.45 405.79 355.78C404.57 357.58 401.65 358.75 401.07 360.78C400.88 360.64 400.68 360.5 400.48 360.36C399.94 360.61 399.39 360.87 398.85 361.12C398.73 361.18 398.61 361.24 398.5 361.3C377.56 367.58 349.17 361.41 327.55 359.32C319.02 358.49 310.39 357.99 301.82 357.85C297.09 357.77 291.83 358.47 287.21 357.4C287.96 354.37 291.07 352.49 291.07 349.75C292.46 350.62 293.66 349.23 294.71 347.9C297.31 346.61 299.16 345.26 302.06 344.59C303.7 344.7 305.35 344.82 307 344.93C311.08 345.67 314.51 348.24 317.72 350.74C318.87 350 318.69 349.85 319.59 350.6C319.76 348.6 319.92 346.6 320.09 344.61C321.39 341.33 320.52 337.11 321.21 333.62C321.73 331.03 323.48 328.23 322.63 325.67C324.04 324.8 324.66 323.48 325.2 321.69C327.51 321.2 327.39 317.78 330.35 316.94C330.73 316.26 331.12 315.59 331.51 314.92C333.82 314.61 334.14 312.95 335.74 311.69C337.01 310.69 339.84 309.81 341.49 308.96C348.32 305.46 355.44 304.46 363.08 304.8C367.51 305 373.71 306.75 377.4 309.26C379.33 310.56 381.11 314.01 383.4 313.98C384.6 311.8 384.61 308.63 385.46 306.18C386.64 302.8 388.74 299.8 390.42 296.68C390.11 296.06 389.8 295.43 389.49 294.81C390.14 294.11 390.79 293.41 391.44 292.71C391.62 292.78 391.79 292.86 391.97 292.94C392.62 291.93 393.28 290.91 393.94 289.9C393.97 289.59 394.01 289.28 394.04 288.96C394.32 288.34 394.59 287.72 394.87 287.09C395.73 286.24 396.59 285.38 397.44 284.52C399.59 284.8 404.82 281.56 409.19 282.18C413.09 282.73 414.97 286.31 418.22 287.77ZM169.24 298.35C169.79 298.97 170.35 299.59 170.9 300.21C170.91 300.14 170.93 300.07 170.94 299.99C171.15 300.41 171.36 300.83 171.56 301.25C172.18 302.64 172.79 304.02 173.4 305.4C173.25 306.95 173.56 308.58 173.29 310.13C172.85 312.57 171.46 312.6 172.3 315.29C176.1 312.85 179.96 314.06 183.95 312.96C187.24 316.25 189.38 315.47 192.28 320.85C194.77 326.86 194.33 333.26 192.98 339.48C191.99 340.96 191.27 341.8 191.47 343.55C196.46 340.82 197.83 342.34 202.93 342.03C202.58 343.03 206.82 345.94 207.83 347.41C210.12 350.71 210.65 355.03 211.63 358.77C203.11 361.22 191.17 361.14 182.22 361.64C165.48 362.59 146.62 366.5 130.76 359.02C126 356.77 123.59 353.4 119.7 350.8C119.47 350.61 119.23 350.41 119 350.22C118.84 350.69 118.69 351.16 118.53 351.63C118.22 351.32 117.91 351 117.6 350.68C117.62 350.22 117.65 349.75 117.68 349.28C117.83 349.2 117.98 349.13 118.13 349.05C117.83 348.74 117.52 348.42 117.22 348.11C117.26 348.14 117.3 348.16 117.33 348.19C112.55 340.13 110.4 330.58 109.14 321.37C108.71 318.24 109.01 314.91 108.45 311.88C108.77 311.95 109.09 312.03 109.41 312.11C110.36 309.76 111.31 307.41 112.26 305.06C113.86 303.46 115.46 301.86 117.07 300.26C125.58 295.15 126.77 294.64 136.53 298.21C136.85 298.37 137.16 298.52 137.47 298.67C140.52 300.5 143.57 302.33 146.62 304.16C146.69 303.54 146.75 302.91 146.82 302.29C148.87 300.41 150.92 298.53 152.97 296.65C154.63 297.02 157.22 295.54 159.21 295.53C162.95 295.49 165.97 296.8 169.24 298.35ZM364.87 399.86C363.32 402.07 360.91 400.77 358.63 401.08C357.93 400.96 357.23 400.84 356.53 400.72C358.28 399.07 362.42 400.21 364.87 399.86ZM188.9 403.7C186.23 403.58 183.57 403.46 180.9 403.33C181.62 403.09 182.34 402.84 183.06 402.59C185.08 402.74 187.11 402.9 189.14 403.05C189.06 403.27 188.98 403.48 188.9 403.7ZM343.4 403.13C341.46 404.75 338.15 403.88 335.72 403.89C335.57 403.69 335.41 403.49 335.25 403.29C337.2 403.05 339.15 402.82 341.1 402.59C341.86 402.77 342.63 402.95 343.4 403.13ZM209.48 404.66C209.01 404.76 208.54 404.85 208.07 404.95C205.15 406.01 200.38 405.82 197.32 405.09C197.95 404.35 198.04 404.24 197.55 403.52C198.82 403.52 202.33 402.83 202.23 404.46C204.64 404.53 207.06 404.6 209.48 404.66ZM315.54 405.04C311.51 405.2 307.49 405.36 303.46 405.52C303.23 405.32 302.99 405.12 302.76 404.92C306.81 404.63 310.86 404.34 314.92 404.04C315.12 404.37 315.33 404.71 315.54 405.04ZM329.66 404.72C326.07 404.97 322.48 405.21 318.89 405.45C318.11 405.19 317.33 404.94 316.55 404.69C320.63 403.87 325.64 403.75 329.66 404.72ZM300.26 406.12C291.38 407.98 281.8 406.58 272.83 406.61C266.55 406.64 260.36 406.7 254.13 406.62C248.98 406.55 243.59 407.39 238.47 406.74C238.7 406.13 238.93 405.53 239.17 404.92C242.83 403.6 247.04 405.96 250.86 405.51C251.99 405.38 252.96 404.78 254.13 404.82C255.26 404.87 256.23 405.54 257.38 405.35C259.73 404.97 264.37 404.21 266.29 405.86C269.16 403.98 273.63 404.99 276.82 405.3C278.76 405.5 280.79 405.17 282.65 404.92C285.31 404.57 287.67 405.61 290.13 405.68C291.32 405.71 292.71 405.09 293.89 404.94C296.07 404.67 298.13 405.67 300.26 406.12Z" fill="#519027" fill-rule="evenodd" stroke="#519027" stroke-width="0.25" stroke-linejoin="round"/>
<path d="M414.84 372.3C414.59 371.56 414.34 370.83 414.09 370.09C410.44 373.98 408.11 378.52 403.29 381.55C401.68 381.07 398.59 380.1 396.98 381.31C397.6 382.09 398.22 382.87 398.85 383.65C400.16 382.75 399.8 381.9 401.65 382.25C401.48 384.41 399.79 384.21 397.91 384.58C400.12 385.26 398.01 386.31 396.74 386.69C396.66 385.99 396.59 385.29 396.51 384.58C395.88 384.9 395.26 385.21 394.64 385.52C395.86 386.16 395.95 386.49 396.04 387.86C392.65 388.59 392.23 389.59 389.73 390.9C388.37 389.54 390.27 387.74 391.83 386.92C391.83 384.66 391.45 382.49 393.7 381.31C392.07 380.24 391.83 377.63 389.49 379.44C390.69 381.83 391.02 383.13 389.26 384.82C388 382.42 384.93 383.85 382.95 382.25C383.1 381.31 383.26 380.38 383.42 379.44C385.13 378.59 384.88 377.6 386.69 377.57C386.41 376.62 387.85 375.6 388.88 375.09C392.65 373.2 395.02 369.51 398.38 367.75C398.08 367.48 397.27 367.56 397.13 367.25C396.91 366.8 399.73 363.65 399.9 362.85C400.25 362.69 400.6 362.53 400.95 362.37C401.18 361.98 401.42 361.6 401.65 361.21C401.46 361.06 401.27 360.92 401.07 360.78C401.65 358.75 404.57 357.58 405.79 355.78C407.37 353.45 409.03 350.52 410.11 347.88C415.64 334.38 417.3 320.56 418.39 306.03C418.73 301.38 419.09 296.67 418.9 292C418.86 290.98 418.87 287.85 418.22 287.77C418.23 287.23 418.24 286.7 418.25 286.16C419.54 284.7 419.57 280.5 419.58 278.44C419.61 272.38 419.82 266.37 419.65 260.3C419.58 260.01 419.5 259.72 419.42 259.43C419.89 259.22 420.35 259.01 420.82 258.81C419.43 253.13 420.77 239.65 420.78 233.09C420.82 218.45 420.49 203.68 419.09 189.13C418.54 183.44 418.38 177.66 417.08 172.07C416.77 160.17 408.26 137.32 399.83 128.67C396.72 121.54 383.13 114.57 376.29 111.62C350.61 100.52 319.61 101.64 292 101.03C280.48 100.77 268.92 101.19 257.4 100.87C246.66 100.58 235.89 100.88 225.14 101.04C185.96 101.62 133.64 101.87 115.31 144.53C110.22 156.38 108.43 169.82 107.61 182.59C106.93 193.01 104.36 207.36 106.16 217.42C106.15 224.28 106.13 231.14 106.12 238C106.2 250.48 106.28 262.97 106.35 275.45C106.81 285.05 107.26 294.65 107.72 304.25C107.97 306.01 108.22 307.77 108.48 309.54C108.4 309.69 108.32 309.85 108.24 310.01C108.24 310.47 108.24 310.94 108.24 311.41C108.31 311.56 108.38 311.72 108.45 311.88C109.01 314.91 108.71 318.24 109.14 321.37C110.4 330.58 112.55 340.13 117.33 348.19C117.45 348.55 117.56 348.92 117.68 349.28C117.65 349.75 117.62 350.22 117.6 350.68C117.91 351 118.22 351.32 118.53 351.63C118.69 351.16 118.84 350.69 119 350.22C119.23 350.41 119.47 350.61 119.7 350.8C119.25 351.15 118.8 351.5 118.35 351.85C118.95 352.74 119.56 353.62 120.17 354.5C121.27 356.84 121.99 357.72 119.23 358.4C120.33 359.46 125.46 365.44 124.61 366.58C122.79 366.12 122.42 362.42 120.17 361.67C120.17 362.92 120.17 364.17 120.17 365.41C121.95 366.35 122.04 367.2 122.04 369.15C121.41 369.62 120.79 370.09 120.17 370.56C121.22 372.17 126.45 372.1 127.08 373C127.46 373.55 127.28 375.24 127.42 375.93C128.04 375.31 128.66 374.69 129.29 374.06C129.77 376.47 129.85 376.22 128.12 377.57C128.74 378.51 129.36 379.44 129.99 380.38C129.09 381.31 129.41 381.44 129.75 382.48C128.82 382.48 127.88 382.48 126.95 382.48C126.79 380.61 126.64 378.74 126.48 376.87C125.52 378.1 123.87 380.39 124.14 382.01C121.72 380.53 119.3 379.05 116.89 377.57C117.67 378.35 118.45 379.13 119.23 379.91C118.76 380.2 118.28 380.49 117.8 380.77C117.58 380.7 117.35 380.62 117.13 380.54C115.61 378.62 114.09 376.69 112.57 374.77C112.45 374.18 112.34 373.59 112.22 373C113.31 373.75 114.4 374.49 115.49 375.23C113.54 372.36 111.6 369.5 109.65 366.63C109.34 367.39 109.04 368.16 108.74 368.92C108.26 368.34 107.79 367.77 107.31 367.19C106.4 365.2 105.49 363.2 104.58 361.21C104.52 359.49 104.68 359.24 103.19 358.4C103.48 356.56 103.32 355.6 101.86 354.19C101.96 353.65 102.06 353.1 102.17 352.56C101.62 351.7 101.07 350.84 100.53 349.98C100.61 348.97 100.68 347.96 100.76 346.94C99.33 345.24 98.95 344.35 99.59 342.03C97.42 339.42 98.89 337.03 97.59 334.17C97.41 333.79 97 333.62 96.82 333.22C95.97 331.44 96.88 327.74 96.56 325.67C96.34 324.25 95.25 322.89 95.27 321.46C95.29 319.44 95.83 317.54 95.67 315.42C95.47 312.56 94.6 310.02 94.05 307.43C93.35 304.11 94.18 300.45 94.28 297.15C94.41 292.6 93.59 288.09 93.38 283.59C93.31 282.18 93.99 280.67 93.93 279.39C93.86 277.9 93.09 276.91 93.01 275.17C92.93 273.5 93.47 271.65 93.37 270.12C92.7 259.4 92.56 248.16 92.66 237.3C92.73 229.53 92.51 221.77 92.72 213.92C92.77 211.95 92.97 206.52 93.98 205.5C93.92 204.66 93.26 203.85 93.25 203.16C93.24 202.68 93.78 202.56 93.84 202.14C94.3 198.32 94.36 193.84 94.49 189.84C94.55 187.93 93.93 186.32 93.93 184.46C93.94 182.92 94.61 178.31 95.85 178.38C95.65 175.58 95.45 172.77 95.25 169.97C98.6 166.95 94.8 161.33 98.43 158.98C98.08 156.7 97.4 154.98 100.06 154.07C99.74 152.73 99.92 151.64 99.13 150.79C99.61 150.09 100.47 149.3 100.83 148.67C101.43 147.62 99.69 145.02 102.17 145.42C102.58 143.31 103 141.21 103.42 139.11C104.59 137.87 105.88 133.41 107.54 133.49C107.57 131.89 107.11 131.09 108.95 130.69C108.87 126.94 113.4 125.17 113.57 121.8C116.37 120.22 119.57 113.16 122.97 113.86C123.67 112.8 124.38 111.74 125.08 110.68C126.09 110.33 127.1 109.99 128.12 109.65C128.75 107.27 130.83 108.74 131.16 106.59C134.17 107.17 135.54 103.3 138.4 104.04C139.71 103.36 139.97 102.59 141.68 102.63C141.79 102.17 141.89 101.7 142 101.23C144.27 101.19 145.02 101.31 146.12 99.45C147.21 99.66 148.3 99.86 149.39 100.06C149.7 99.36 150.02 98.65 150.33 97.95C151.65 98.11 152.98 98.27 154.3 98.43C155.62 96.1 157.13 96.84 159.44 97.02C159.99 96.38 160.54 95.73 161.08 95.08C163.26 95.34 165.45 95.6 167.63 95.85C168.09 95.18 168.56 94.51 169.03 93.84C171.68 93.89 174.33 93.94 176.98 93.98C176.98 93.52 176.98 93.06 176.98 92.6C181.38 92.84 187.04 93.42 191.94 92.56C195.02 92.02 196.39 89.29 200.12 91.88C208.21 90.11 217.77 91.2 226.07 91.21C239.47 91.23 252.88 90.66 266.29 91.15C277.31 91.56 289.12 92.26 299.95 90.85C301.41 90.66 302.56 91.43 303.78 91.5C304.5 91.55 305.24 91.06 306.03 91.07C308.1 91.11 309.77 92.03 311.66 92.48C314.73 93.21 325.13 93.66 327.54 92.15C329.43 92.53 331.99 92.36 330.35 93.98C335.33 93.92 340.32 93.87 345.31 93.81C346.44 95 348.41 94.77 347.65 95.85C350.61 95.59 353.57 95.32 356.53 95.06C356.69 95.64 356.84 96.21 357 96.79C359.18 96.66 361.36 96.52 363.54 96.39C366.55 98.42 365.49 98.19 369.62 97.89C371.2 100.21 372.94 99.74 375.7 99.55C375.86 100.19 376.01 100.83 376.17 101.46C377.7 101.05 380.09 100.45 379.91 102.87C380.84 102.61 381.78 102.34 382.71 102.08C382.87 102.66 383.03 103.23 383.18 103.8C385.52 103.57 386.04 104.82 388.33 104.92C388.64 105.64 388.95 106.36 389.26 107.08C390.9 106.82 391.45 107.85 393 107.89C393.91 109.1 394.94 110.8 396.74 110.35C398.06 111.74 399.08 113.06 400.95 113.48C403 116.34 407.39 118.73 408.2 122.27C410.4 122.23 412 125.89 412.17 127.65C415 128.49 414.21 131.5 416.59 132.56C416.64 134.81 418.48 136.17 419.1 138.13C419.28 138.7 418.84 140.14 419.22 140.55C419.53 140.87 420.08 140.79 420.48 140.98C420.36 141.83 420.24 142.69 420.12 143.55C422.58 145.93 422.25 150.48 424.53 152.2C424.39 153.44 424.24 154.69 424.09 155.94C426.54 155.8 425.58 159.41 425.26 160.85C427.63 161.93 427.14 163.69 426.67 165.99C427.29 167.16 427.91 168.33 428.53 169.5C428.05 171.8 427.32 175.03 429.7 176.04C429.55 178.69 429.39 181.34 429.24 183.99C432.1 186.16 430.91 191.85 430.69 195.21C430.39 199.69 431.67 203.82 432.4 207.84C433.29 212.71 431.87 217.75 431.94 222.57C432.16 238.07 431.99 253.58 432.06 269.09C432.09 275.97 433.35 283.29 432.36 290.13C432.2 291.23 431.41 291.54 431.12 292.49C430.77 293.63 431.5 294.67 431.57 295.74C431.74 298.1 431.01 300.82 430.96 303.23C430.87 307.4 431.5 311.7 430.96 315.85C430.6 318.58 429.21 321.44 429.33 324.27C429.39 325.5 429.92 326.76 429.78 328.01C429.41 331.21 428.31 333.56 428.44 336.89C427.93 337.51 427.41 338.14 426.9 338.76C427.43 342.29 425.5 344.74 425.86 348.11C425.35 348.97 424.84 349.83 424.33 350.68C424.43 351.54 424.52 352.4 424.62 353.26C421.87 357.31 419.21 370.11 414.84 372.3ZM414.84 372.3C414.57 372.73 414.31 373.16 414.04 373.6C413.73 374.22 413.42 374.84 413.11 375.47C412.61 376.18 412.1 376.9 411.6 377.62C411.4 377.45 411.2 377.27 411 377.1C411.4 376.17 411.8 375.23 412.19 374.3C413.07 373.63 413.96 372.97 414.84 372.3ZM390.66 375C389.57 376.25 388.48 377.49 387.39 378.74C388.62 378.66 389.86 377 390.66 377.04C391.78 377.11 391.04 378.25 392.53 377.8C392.51 376.5 391.9 375.39 390.66 375ZM408.66 379.91C408.71 380.07 408.76 380.22 408.81 380.38C407.28 381.69 405.75 383 404.22 384.31C404.14 384.17 404.06 384.02 403.97 383.88C403.9 383.87 403.83 383.85 403.76 383.83C404.14 383.3 404.53 382.77 404.92 382.25C405.16 382.01 405.39 381.78 405.63 381.55C406.4 381.16 407.17 380.77 407.94 380.38C408.18 380.22 408.42 380.07 408.66 379.91Z" fill="#67d1e1" fill-rule="evenodd" stroke="#67d1e1" stroke-width="0.25" stroke-linejoin="round"/>
<path d="M176.91 112.8C188.06 111.29 201.06 115.19 206.98 125.21C208.66 128.06 210.32 131.86 209.29 135.23C207.63 140.68 202.65 145.54 198.48 149.15C187.04 159.06 167.15 166.74 152.11 163.13C145.76 161.6 139.27 161.8 134.22 156.94C127.38 150.34 129.52 141.32 133.73 133.97C142.52 118.61 160.91 114.97 176.91 112.8ZM399.83 128.67C408.26 137.32 416.77 160.17 417.08 172.07C416.67 172.3 416.27 172.54 415.86 172.77C416.39 178.74 416.63 184.54 416.9 190.54C417 192.67 417.41 196.17 416.38 198.04C416.07 196.63 415.77 195.22 415.46 193.81C415.21 194.51 414.59 195.02 414.43 195.73C413.77 198.68 415.36 205.57 412.64 207.32C412.02 206.47 411.39 205.63 410.77 204.78C409.99 204.63 409.21 204.48 408.43 204.32C407.96 204.78 407.5 205.23 407.03 205.69C403.88 205.56 400.87 202.17 397.69 202.48C396.98 202.55 396.06 203.44 395.34 203.72C395.11 201.5 395.54 200.97 396.98 199.89C396.24 198.49 394.7 198.49 393.23 198.49C393.23 200.63 393.63 205.04 391.83 205.97C391.52 205.63 391.14 204.73 390.99 204.59C389.07 202.86 380.53 205.28 382.91 200.83C383.55 201.14 384.18 201.45 384.82 201.76C384.66 199.63 383.58 201.23 383.12 199.82C382.63 198.31 384.16 194.91 384.61 193.34C384.04 192.97 383.47 192.6 382.9 192.23C384.73 172.62 382.24 162.97 367.81 149.08C364.93 146.3 358.38 143.8 356.72 141.67C358.55 141.1 363.26 143.78 364.84 144.58C366.39 145.37 366.92 147.14 368.69 147.76C366.77 145.17 363.73 142.48 361.08 140.74C359.72 139.84 357.51 140.17 356.88 138.64C358.46 137.51 359.53 138.75 360.74 139.92C361.21 137.31 361.67 134.69 362.14 132.08C363.94 131.95 364.89 132.35 365.88 133.86C368.95 132.3 369.21 133.33 371.02 134.96C371.88 133.54 372.74 132.11 373.6 130.69C374.61 131.75 375.62 132.81 376.64 133.87C377.96 132.63 380.45 131.35 382.01 132.56C382.01 133.18 382 133.81 382 134.43C382.55 135.03 383.1 135.64 383.65 136.24C384.28 135.04 384.4 135.53 385.52 136.06C386.3 135.9 387.08 135.75 387.86 135.6C388.48 136.11 389.1 136.63 389.73 137.14C391.13 136.94 392.53 136.74 393.94 136.53C393.7 136.14 393.47 135.75 393.23 135.36C395 134.05 394.91 137.82 396.04 138.64C396.59 137.94 397.13 137.23 397.68 136.53C397.99 138.78 398.3 141.03 398.61 143.28C399.89 141.82 403.77 141.63 405.53 141.44C398.78 128.8 391.06 121.31 378.75 114.32C383.06 114.32 391.21 120.9 394.51 123.81C396.24 125.33 397.85 127.66 399.83 128.67ZM352.05 136.77C353.82 136.57 354.17 136.83 355.59 137.74C354 137.96 353.03 138.15 351.85 136.97C349.87 137.51 340.79 136.73 339.93 135.57C342.62 135.57 345.32 135.57 348.01 135.57C347.88 134.41 347.21 133.44 348.51 133.49C348.98 132.69 348.59 134.39 349.26 134.86C350.57 135.77 351.88 134.75 352.05 136.77ZM351.62 140.35C348.04 140.07 344.45 139.78 340.87 139.5C341.1 139.09 341.33 138.68 341.57 138.27C344.66 139.11 349.38 137.67 351.62 140.35ZM227.1 140.36C233.59 139.59 236.37 143.8 236.91 149.63C237.18 152.63 237.04 157.2 233.43 158.32C225.92 160.65 218.46 156.98 217.85 148.92C217.68 146.68 217.77 144.27 219.52 142.6C221.44 140.76 224.63 140.65 227.1 140.36ZM306.33 162.36C306.08 164.82 304.38 167.07 303.86 169.5C302.47 176.02 301.73 182.91 302.6 189.6C303.41 195.78 306.42 201.69 309.4 207.04C310.72 209.41 313.07 211.16 314.27 213.57C313.55 213.96 312.83 214.36 312.11 214.76C311.02 213.31 309.93 211.86 308.84 210.41C307.86 211.45 307.27 212.98 305.41 211.11C304.84 212.04 304.27 212.97 303.69 213.9C302.29 213.69 300.89 213.48 299.48 213.26C299.04 217.24 298.42 220.71 297.61 224.44C296.76 223.43 295.9 222.41 295.04 221.4C294.71 222.18 294.37 222.96 294.03 223.74C291.97 224.07 291.86 224.22 291.54 226.28C291 223.75 288.9 224.43 288.73 222.1C286.42 222.53 287.22 223.68 285.93 225.08C285.46 224.07 284.99 223.07 284.52 222.07C283.9 222.39 283.28 222.71 282.65 223.04C281.05 224.53 281.45 226.47 277.98 226.14C277.16 224.57 277.15 223.91 277.74 222.33C276.73 220.93 275.72 219.52 274.7 218.11C275.15 219.52 275.6 220.93 276.04 222.33C274.04 222.44 272.91 220.04 272.23 218.13C272.68 217.66 273.14 217.19 273.59 216.72C272.56 215.76 271.53 214.79 270.49 213.82C265.21 216.2 262.07 211.67 257.09 210.68C252.67 209.81 249.04 210.48 244.76 210.7C241.92 210.85 239.19 210.15 236.36 210.32C233.86 207.72 233.77 205.22 232.59 202.01C231.49 199.06 229.1 196.32 227.14 193.91C226.73 193.4 226.33 192.33 225.8 191.98C225.22 191.6 224.61 191.81 224.02 191.45C221.28 189.79 219.43 186.2 216.61 184.37C214.26 182.84 211.45 182.32 208.9 181.27C199.02 177.18 185.1 174.47 175.73 181.61C171.29 184.98 163.45 191.21 160.52 195.8C159.05 198.09 155.11 206.87 153.6 207.79C146.03 202.28 134.07 199.34 124.61 201.41C121.5 202.09 118.05 204.88 115.44 205.29C122.4 196.83 145.59 199.69 153.6 205.66C155.95 202.22 157.64 198.3 160.14 194.98C161.94 192.59 164.41 190.83 166.53 188.74C175.91 179.51 186.13 173.61 199.92 177.1C205.76 178.58 212.86 180.59 217.74 184.16C220.44 186.14 223.37 190.64 226.9 189.6C225.61 188.2 224.32 186.8 223.04 185.4C224.1 185.24 225.17 185.08 226.23 184.93C226.28 184.15 226.33 183.37 226.38 182.59C227.13 184.13 226.45 185.08 228.41 186.18C229.74 183.61 231.91 184.15 233.64 183.06C233.93 184.11 234.21 185.16 234.49 186.21C235.28 184.18 235.98 182.92 235.78 180.72C236.75 180.88 237.73 181.04 238.7 181.2C239.01 180.56 239.32 179.91 239.63 179.27C240.73 180.91 241.05 180.47 243 179.78C243.36 179.38 244.05 177.6 244.44 177.46C245.93 176.92 244.79 179.65 245.95 178.85C246.96 177.78 247.97 176.71 248.99 175.64C249.14 176.32 249.3 176.99 249.45 177.66C251.11 177.36 251.76 176.76 252.07 175.11C250.55 174.72 250.25 174.81 250.32 173.24C251.92 173.08 251.17 174.37 252.31 174.74C253.82 175.24 254.65 173.34 256.47 174.86C257.09 173.98 257.71 173.09 258.34 172.2C259.21 172.56 262.07 173.63 262.33 171.8C262.49 170.65 260.74 170.65 260.21 170.3C263.2 170.05 263.17 170.97 264.88 172.72C264.71 171.65 264.53 170.57 264.36 169.5C266.72 169.31 267.29 168.55 267.66 166.22C270.55 166.08 274.75 165.95 275.03 162.02C276.67 161.34 280.18 160.03 280.71 158.74C279.93 158.43 279.16 158.12 278.39 157.81C279.4 154.92 280.18 157.3 281.72 157.67C283.18 158.03 283.72 157.67 285.46 158.25C286.08 156.84 286.7 155.43 287.33 154.02C288.42 155.06 289.51 156.09 290.6 157.12C290.34 156.57 290.07 156.02 289.81 155.47C292.1 155.65 293.09 156.3 292.47 153.3C294.3 152.9 294.15 154.95 295.78 155.47C295.68 154.69 295.57 153.91 295.47 153.13C298.32 152.4 297.36 151.32 299.75 150.79C299.24 149.32 298.62 148.53 299.32 147.05C300.16 147.21 300.42 148.27 301.35 148.27C302.52 148.27 305.1 146.59 304.63 145.58C305.81 145.13 305.35 145.12 306.5 144.62C307.37 146.28 305.54 147 308.77 147.52C309.03 149.24 309.29 150.95 309.55 152.66C308.34 154.97 306.07 157.39 306.35 160.15C305.54 161.24 304.73 162.33 303.93 163.42C304.73 163.07 305.53 162.71 306.33 162.36ZM399.31 244C398.3 244.03 397.29 244.05 396.27 244.08C395.55 242.68 394.51 242.71 393 242.47C392.91 242.36 392.82 242.25 392.73 242.14C392.98 241.98 393.22 241.83 393.47 241.67C395.37 242.24 397.28 242.81 399.18 243.38C399.22 243.58 399.27 243.79 399.31 244ZM412.2 250.61C411.57 250.25 410.93 249.9 410.3 249.55C410.17 249.59 410.04 249.64 409.91 249.69C409.81 249.56 409.7 249.44 409.6 249.32C408.04 248.31 406.47 247.31 404.91 246.3C405.15 246.15 405.39 246.01 405.63 245.86C407.85 247.21 410.08 248.57 412.3 249.92C412.27 250.15 412.23 250.38 412.2 250.61Z" fill="#e2fbf3" fill-rule="evenodd" stroke="#e2fbf3" stroke-width="0.25" stroke-linejoin="round"/>
<path d="M216.92 243.22C216.78 243.17 216.63 243.12 216.49 243.08C216.1 242.79 215.71 242.5 215.32 242.21C214.33 243.66 213.33 242.38 212.05 241.74C212.13 241.35 212.2 240.96 212.28 240.57C209.71 239.71 207.14 238.86 204.57 238C205.19 238.62 205.63 238.52 205.03 239.4C206.97 239.79 211.7 241.38 210.18 243.61C212.61 243.09 214.38 242.63 216.02 245.25C215.09 245.87 214.15 246.49 213.22 247.12C213.76 247.66 214.31 248.21 214.85 248.75C215.77 247.01 216.71 246.87 218.59 246.88C218.44 247.51 218.28 248.13 218.13 248.75C219.11 248.96 218.58 248.38 219.53 247.99C220.92 247.43 224.84 249.57 226.07 250.16C226.52 249.77 226.97 249.38 227.42 248.99C229.79 249.75 238.21 256.57 238 256.94C237.02 257.33 237.09 258.34 238.17 258.85C239 259.24 240.03 258.59 239.17 258.24C242.83 258.68 247.17 267.09 247.71 270.73C248 272.64 247.56 274.27 248.28 276.11C247.35 277.82 246.41 279.53 245.48 281.25C243.13 282.51 239.08 281.33 236.36 280.89C234.21 282.86 228.18 282.44 226.07 280.41C225.33 281.24 224.6 282.29 223.28 281.94C222.17 281.63 221.11 280.55 220 280.11C215.86 278.49 211.44 277.23 207.14 275.95C205.09 275.34 201.06 274.22 203.4 272.37C201.71 271.52 199.73 271.2 201.29 273.16C200.15 272.88 195.55 271.93 195.04 270.74C194.79 270.17 195.73 269.69 195.92 269.09C194.81 269.3 194.31 269.32 194.28 270.24C191.69 270.13 190.23 268.58 188 267.58C178.34 263.28 173.06 254.71 174.89 243.84C175.27 247.04 175.66 250.23 176.04 253.43C177.25 250.98 175.2 247.35 177.21 245.25C176.57 244.31 175.94 243.38 175.3 242.44C175.7 241.6 176.11 240.76 176.51 239.92C177.13 239.09 177.76 238.25 178.38 237.41C181.82 237.7 183.15 236.9 185.86 235.19C189.21 235.27 192.56 235.35 195.92 235.43C195.29 236.05 194.67 236.67 194.05 237.3C196.53 236.42 201.04 237.37 199.89 240.8C201.48 241.14 203.22 238.84 203.63 237.27C208.64 237.53 212.94 240.49 217.19 242.82C217.1 242.95 217.01 243.09 216.92 243.22ZM109.41 292.63C109.73 293.51 110.04 294.39 110.35 295.28C109.54 297.8 109.5 299.94 109.48 302.76C110.5 301.97 110.29 302.89 110.54 304.01C110.68 304.14 110.82 304.27 110.97 304.39C110.29 306.03 109.62 307.67 108.95 309.3C108.79 309.38 108.63 309.46 108.48 309.54C108.22 307.77 107.97 306.01 107.72 304.25C107.89 297.13 108.07 290.01 108.24 282.89C108.63 286.13 109.02 289.38 109.41 292.63ZM394.04 288.96C394.01 289.28 393.97 289.59 393.94 289.9C393.28 290.91 392.62 291.93 391.97 292.94C391.79 292.86 391.62 292.78 391.44 292.71C391.34 291.93 391.23 291.15 391.13 290.37C391.6 290.37 392.07 290.37 392.53 290.37C392.85 289.74 393.16 289.12 393.47 288.5C393.66 288.65 393.85 288.81 394.04 288.96ZM271.66 289.2C269.34 290.36 266.27 291.11 263.72 290.6C266.2 290.1 269.18 288.7 271.66 289.2ZM168.72 296.03C168.23 296.09 167.74 296.15 167.25 296.21C167.84 296.53 168.44 296.86 169.03 297.18C169.1 297.57 169.17 297.96 169.24 298.35C165.97 296.8 162.95 295.49 159.21 295.53C157.22 295.54 154.63 297.02 152.97 296.65C152.87 296.42 152.77 296.19 152.66 295.95C152.3 295.97 151.94 295.98 151.57 296C155.62 291.87 164.59 292.61 168.72 296.03ZM136.53 298.21C126.77 294.64 125.58 295.15 117.07 300.26C117.82 298.28 121.65 297.33 120.4 295.51C125.16 293.65 131.76 292.86 136.07 296.21C136.22 296.88 136.38 297.55 136.53 298.21ZM234.73 298.55C228.87 301.48 221.57 300.2 215.41 302.61C213.84 303.23 209.68 304.76 208.54 303.69C210.03 302.55 211.84 303.63 213.52 302.81C215.86 301.67 218.9 300.79 221.41 300.21C223.35 299.76 225.5 300.44 227.46 299.88C229.92 299.19 232.1 298.02 234.73 298.55ZM171.56 301.25C172.2 301.29 172.84 301.32 173.47 301.36C175.44 303.89 175.55 306.47 174.64 309.54C174.33 307.98 174.98 305.87 173.4 305.4C172.79 304.02 172.18 302.64 171.56 301.25ZM119.7 350.8C123.59 353.4 126 356.77 130.76 359.02C146.62 366.5 165.48 362.59 182.22 361.64C191.17 361.14 203.11 361.22 211.63 358.77C217.16 360.11 224.11 358.13 229.82 357.9C242.28 357.4 254.8 357.32 267.22 357.19C270.66 357.15 285.12 358.66 287.21 357.4C291.83 358.47 297.09 357.77 301.82 357.85C310.39 357.99 319.02 358.49 327.55 359.32C349.17 361.41 377.56 367.58 398.5 361.3C398.6 361.35 398.71 361.39 398.82 361.44C397.45 363.72 393.12 364.65 392.53 367.82C393.26 367.56 393.98 367.3 394.7 367.04C393.92 369 390.49 370.73 388.66 372.11C381.64 377.42 372.56 379.93 364.13 382.19C346.1 387.03 326.45 387.21 307.9 387.94C291.92 388.56 275.48 389.61 259.51 388.66C255.3 388.72 251.09 388.78 246.88 388.85C235.69 388.06 224.2 388.67 212.98 388.54C199.91 388.38 187.05 386.89 174.17 384.83C166.81 383.65 159.14 382.51 152.18 379.74C143.78 376.39 135.77 372.03 129.15 365.78C126.5 363.28 122.66 355.51 120.17 354.5C119.56 353.62 118.95 352.74 118.35 351.85C118.8 351.5 119.25 351.15 119.7 350.8Z" fill="#c9e141" fill-rule="evenodd" stroke="#c9e141" stroke-width="0.25" stroke-linejoin="round"/>
<path d="M181.89 225.31C188.13 225.6 194.37 225.9 200.61 226.19C206.09 226.51 219.09 229.98 223.24 233.33C223.09 233.48 222.95 233.64 222.8 233.79C224.52 234.57 226.23 235.35 227.95 236.13C228.49 235.98 229.04 235.84 229.58 235.7C229.81 235.83 230.03 235.97 230.25 236.1C230.26 236.42 230.27 236.74 230.28 237.06C231.06 237.22 231.84 237.37 232.62 237.53C234.02 238.31 235.43 239.09 236.83 239.87C237.06 239.73 237.3 239.59 237.53 239.45C242.53 240.8 248.04 244.93 252.4 247.76C261.8 253.86 270.91 260.27 279.91 266.93C284.13 270.05 288.4 273.05 292.63 276.16C293.6 276.87 294.5 278.35 295.49 278.87C296.17 279.23 297.11 279.12 297.85 279.14C297.9 279.38 297.94 279.61 297.99 279.85C297.01 280 296.02 280.16 295.04 280.31C294.95 280.53 294.87 280.74 294.78 280.96C288.74 283.06 282.73 286.79 276.49 288.82C272.39 290.16 265.93 290.65 262.66 293.17C261.84 293.64 261.02 294.11 260.21 294.58C258.18 293.59 254.32 295.45 252.03 295.92C246.19 297.33 240.36 298.73 234.53 300.14C230.14 301.83 225.47 302.06 220.95 302.95C217.41 303.64 213.79 304.78 210.21 305.46C204.77 306.5 199.58 308.83 194.98 309.05C192.06 308.75 185.63 310.44 183.95 312.96C179.96 314.06 176.1 312.85 172.3 315.29C171.46 312.6 172.85 312.57 173.29 310.13C173.56 308.58 173.25 306.95 173.4 305.4C174.98 305.87 174.33 307.98 174.64 309.54C175.55 306.47 175.44 303.89 173.47 301.36C172.84 301.32 172.2 301.29 171.56 301.25C171.36 300.83 171.15 300.41 170.94 299.99C171.52 300.14 172.11 300.28 172.69 300.42C171.56 299.2 171.34 297.4 169.5 297.5C169.24 297.01 168.98 296.52 168.72 296.03C164.59 292.61 155.62 291.87 151.57 296C149.6 298.06 147.63 300.13 145.65 302.2C142.85 300.43 140.04 298.67 137.23 296.91C137.31 297.5 137.39 298.08 137.47 298.67C137.16 298.52 136.85 298.37 136.53 298.21C136.38 297.55 136.22 296.88 136.07 296.21C131.76 292.86 125.16 293.65 120.4 295.51C121.65 297.33 117.82 298.28 117.07 300.26C115.46 301.86 113.86 303.46 112.26 305.06C112.32 304.44 112.39 303.82 112.45 303.19C112.22 303.51 111.99 303.84 111.75 304.16C111.49 304.24 111.23 304.32 110.97 304.39C110.82 304.27 110.68 304.14 110.54 304.01C111.33 302.74 112.13 301.46 112.92 300.19C112.14 300.65 111.36 301.12 110.58 301.59C110 298.67 111.57 297.11 111.75 294.34C111.28 294.19 110.82 294.03 110.35 293.87C110.39 290.06 111.36 285.37 109.65 281.95C109.57 285.51 109.49 289.07 109.41 292.63C109.02 289.38 108.63 286.13 108.24 282.89C108.07 290.01 107.89 297.13 107.72 304.25C107.26 294.65 106.81 285.05 106.35 275.45C106.64 274.97 106.93 274.49 107.22 274.01C111.81 269.79 115.86 264.75 120.13 260.18C132.11 247.34 146.2 235.44 162.99 229.71C168.84 227.71 175.55 224.52 181.89 225.31ZM216.49 243.08C215.51 243.46 215.77 243.14 216.23 243.84C218.23 244.75 219.69 246.72 221.87 246.76C220.22 245.58 218.57 244.4 216.92 243.22C217.01 243.09 217.1 242.95 217.19 242.82C212.94 240.49 208.64 237.53 203.63 237.27C203.22 238.84 201.48 241.14 199.89 240.8C201.04 237.37 196.53 236.42 194.05 237.3C194.67 236.67 195.29 236.05 195.92 235.43C192.56 235.35 189.21 235.27 185.86 235.19C183.15 236.9 181.82 237.7 178.38 237.41C177.76 238.25 177.13 239.09 176.51 239.92C176.11 240.76 175.7 241.6 175.3 242.44C175.94 243.38 176.57 244.31 177.21 245.25C175.2 247.35 177.25 250.98 176.04 253.43C175.66 250.23 175.27 247.04 174.89 243.84C173.06 254.71 178.34 263.28 188 267.58C190.23 268.58 191.69 270.13 194.28 270.24C194.31 269.32 194.81 269.3 195.92 269.09C195.73 269.69 194.79 270.17 195.04 270.74C195.55 271.93 200.15 272.88 201.29 273.16C199.73 271.2 201.71 271.52 203.4 272.37C201.06 274.22 205.09 275.34 207.14 275.95C211.44 277.23 215.86 278.49 220 280.11C221.11 280.55 222.17 281.63 223.28 281.94C224.6 282.29 225.33 281.24 226.07 280.41C228.18 282.44 234.21 282.86 236.36 280.89C239.08 281.33 243.13 282.51 245.48 281.25C246.41 279.53 247.35 277.82 248.28 276.11C247.56 274.27 248 272.64 247.71 270.73C247.17 267.09 242.83 258.68 239.17 258.24C240.03 258.59 239 259.24 238.17 258.85C237.09 258.34 237.02 257.33 238 256.94C238.21 256.57 229.79 249.75 227.42 248.99C226.97 249.38 226.52 249.77 226.07 250.16C224.84 249.57 220.92 247.43 219.53 247.99C218.58 248.38 219.11 248.96 218.13 248.75C218.28 248.13 218.44 247.51 218.59 246.88C216.71 246.87 215.77 247.01 214.85 248.75C214.31 248.21 213.76 247.66 213.22 247.12C214.15 246.49 215.09 245.87 216.02 245.25C214.38 242.63 212.61 243.09 210.18 243.61C211.7 241.38 206.97 239.79 205.03 239.4C205.63 238.52 205.19 238.62 204.57 238C207.14 238.86 209.71 239.71 212.28 240.57C212.2 240.96 212.13 241.35 212.05 241.74C213.33 242.38 214.33 243.66 215.32 242.21C215.71 242.5 216.1 242.79 216.49 243.08ZM369.39 270.34C367.91 270.62 366.43 270.91 364.95 271.2C363.86 270.35 363.32 270.21 361.91 270.49C361.75 271.43 361.6 272.37 361.44 273.3C361.13 273.85 360.82 274.4 360.5 274.95C359.8 275.23 359.1 275.5 358.4 275.78C358.17 275.47 357.93 275.17 357.7 274.86C357.85 274.5 358.01 274.13 358.17 273.77C357.96 273.66 357.75 273.56 357.54 273.46C356.42 273.17 355.31 272.88 354.19 272.6C352.79 274.22 351.48 274.5 349.52 273.53C349.8 275.09 343.02 276.56 341.57 277.3C340.48 276.86 339.39 276.42 338.29 275.97C338.68 275.8 337.5 274.43 338.22 272.97C339.33 270.69 341.7 268.78 343.58 267.15C351.91 259.91 360.22 252.58 371.96 252.16C377.45 251.96 383.82 252.66 384.81 258.81C382.08 263.32 376.19 273.36 369.39 270.34ZM271.66 289.2C269.18 288.7 266.2 290.1 263.72 290.6C266.27 291.11 269.34 290.36 271.66 289.2ZM234.73 298.55C232.1 298.02 229.92 299.19 227.46 299.88C225.5 300.44 223.35 299.76 221.41 300.21C218.9 300.79 215.86 301.67 213.52 302.81C211.84 303.63 210.03 302.55 208.54 303.69C209.68 304.76 213.84 303.23 215.41 302.61C221.57 300.2 228.87 301.48 234.73 298.55ZM302.06 344.59C299.16 345.26 297.31 346.61 294.71 347.9C294.97 346.71 295.55 346.62 294.81 345.54C296.37 344.61 297.93 343.67 299.48 342.74C300.34 343.35 301.2 343.97 302.06 344.59ZM117.33 348.19C117.3 348.16 117.26 348.14 117.22 348.11C117.52 348.42 117.83 348.74 118.13 349.05C117.98 349.13 117.83 349.2 117.68 349.28C117.56 348.92 117.45 348.55 117.33 348.19Z" fill="#b2dd63" fill-rule="evenodd" stroke="#b2dd63" stroke-width="0.25" stroke-linejoin="round"/>
<path d="M388.56 241.34C388.4 241.38 388.25 241.42 388.09 241.46C388.25 241.42 388.4 241.38 388.56 241.34ZM391.83 242.43C391.99 242.41 392.14 242.39 392.3 242.37C392.17 242.47 392.04 242.57 391.91 242.67C391.88 242.59 391.86 242.51 391.83 242.43ZM409.6 249.32C409.7 249.44 409.81 249.56 409.91 249.69C409.81 249.56 409.7 249.44 409.6 249.32ZM252.03 295.92C254.32 295.45 258.18 293.59 260.21 294.58C261.02 294.11 261.84 293.64 262.66 293.17C263.71 293.02 264.76 292.86 265.82 292.71C265.66 293.33 265.51 293.95 265.35 294.58C263.33 294.58 261.3 294.58 259.27 294.58C257.93 297.13 251.51 295.13 252.26 298.32C251.2 298.08 250.13 297.85 249.07 297.61C249.28 297.09 251.23 297.45 252.03 295.92ZM234.53 300.14C236 300.3 235.89 300.68 235.66 301.82C234.26 302.29 232.85 302.76 231.45 303.23C227.36 302.41 224.54 305.21 220.46 304.39C219.08 305.77 217.59 305.93 215.32 305.8C213.44 308.94 207.53 308.29 204.19 308.93C202.62 309.23 201.05 310.77 199.89 309.07C198.96 309.33 198.02 309.59 197.08 309.85C197.81 311.24 196.53 311.05 195.68 312.34C194.28 312.03 192.88 311.72 191.47 311.41C190 314.36 192.91 313.75 193.11 316.32C191.56 315.8 190.41 314.41 190.07 312.81C189.29 312.81 188.51 312.81 187.73 312.81C187.95 310.7 193.33 310.2 194.98 309.05C199.58 308.83 204.77 306.5 210.21 305.46C213.79 304.78 217.41 303.64 220.95 302.95C225.47 302.06 230.14 301.83 234.53 300.14ZM222.33 315.15C223.19 315.69 224.05 316.24 224.91 316.79C223.13 318.17 220.7 318.09 218.59 317.95C217.03 319.45 215.36 319.06 213.45 319.06C208.78 319.06 206.26 321.75 200.12 320.53C203 319.09 202.9 319.62 205.5 319.82C205.81 319.2 206.12 318.58 206.44 317.95C208.72 319.09 211.94 318.12 214.39 317.25C215.48 317.25 216.57 317.25 217.66 317.25C219.22 316.55 220.78 315.85 222.33 315.15ZM196.62 321.69C194.39 320.3 194.88 318.45 193.58 316.79C195.41 317.12 196.98 319.79 196.62 321.69ZM120.17 354.5C122.66 355.51 126.5 363.28 129.15 365.78C135.77 372.03 143.78 376.39 152.18 379.74C159.14 382.51 166.81 383.65 174.17 384.83C187.05 386.89 199.91 388.38 212.98 388.54C224.2 388.67 235.69 388.06 246.88 388.85C251.09 388.78 255.3 388.72 259.51 388.66C275.48 389.61 291.92 388.56 307.9 387.94C326.45 387.21 346.1 387.03 364.13 382.19C372.56 379.93 381.64 377.42 388.66 372.11C390.49 370.73 393.92 369 394.7 367.04C394.76 367.09 394.81 367.14 394.87 367.19C396.55 365.74 398.22 364.3 399.9 362.85C399.73 363.65 396.91 366.8 397.13 367.25C397.27 367.56 398.08 367.48 398.38 367.75C395.02 369.51 392.65 373.2 388.88 375.09C387.85 375.6 386.41 376.62 386.69 377.57C384.88 377.6 385.13 378.59 383.42 379.44C383.26 380.38 383.1 381.31 382.95 382.25C384.93 383.85 388 382.42 389.26 384.82C391.02 383.13 390.69 381.83 389.49 379.44C391.83 377.63 392.07 380.24 393.7 381.31C391.45 382.49 391.83 384.66 391.83 386.92C390.27 387.74 388.37 389.54 389.73 390.9C392.23 389.59 392.65 388.59 396.04 387.86C395.95 386.49 395.86 386.16 394.64 385.52C395.26 385.21 395.88 384.9 396.51 384.58C396.59 385.29 396.66 385.99 396.74 386.69C398.01 386.31 400.12 385.26 397.91 384.58C399.79 384.21 401.48 384.41 401.65 382.25C399.8 381.9 400.16 382.75 398.85 383.65C398.22 382.87 397.6 382.09 396.98 381.31C398.59 380.1 401.68 381.07 403.29 381.55C408.11 378.52 410.44 373.98 414.09 370.09C414.34 370.83 414.59 371.56 414.84 372.3C413.96 372.97 413.07 373.63 412.19 374.3C411.8 375.23 411.4 376.17 411 377.1C411.2 377.27 411.4 377.45 411.6 377.62C410.62 378.38 409.64 379.15 408.66 379.91C408.42 380.07 408.18 380.22 407.94 380.38C407.17 380.77 406.4 381.16 405.63 381.55C405.39 381.78 405.16 382.01 404.92 382.25C404.53 382.77 404.14 383.3 403.76 383.83C403.83 383.85 403.9 383.87 403.97 383.88C401.41 387.14 394.82 391.22 391.09 392.72C388.66 393.68 386.2 394.04 384.12 395.66C382.35 395.36 380.69 395.51 379.91 397.09C379.05 396.97 378.19 396.86 377.34 396.74C376.1 398.63 374.24 398.61 372.19 398.14C370.37 400.27 367.5 400.33 364.87 399.86C362.42 400.21 358.28 399.07 356.53 400.72C357.23 400.84 357.93 400.96 358.63 401.08C354.52 403.08 351.94 402.34 347.65 402.52C346.17 402.58 344.8 403.39 343.4 403.13C342.63 402.95 341.86 402.77 341.1 402.59C339.15 402.82 337.2 403.05 335.25 403.29C335.41 403.49 335.57 403.69 335.72 403.89C333.7 404.17 331.68 404.45 329.66 404.72C325.64 403.75 320.63 403.87 316.55 404.69C317.33 404.94 318.11 405.19 318.89 405.45C317.88 405.52 316.86 405.59 315.85 405.67C315.75 405.46 315.64 405.25 315.54 405.04C315.33 404.71 315.12 404.37 314.92 404.04C310.86 404.34 306.81 404.63 302.76 404.92C302.99 405.12 303.23 405.32 303.46 405.52C303.38 405.67 303.3 405.82 303.23 405.98C302.24 406.03 301.25 406.07 300.26 406.12C298.13 405.67 296.07 404.67 293.89 404.94C292.71 405.09 291.32 405.71 290.13 405.68C287.67 405.61 285.31 404.57 282.65 404.92C280.79 405.17 278.76 405.5 276.82 405.3C273.63 404.99 269.16 403.98 266.29 405.86C264.37 404.21 259.73 404.97 257.38 405.35C256.23 405.54 255.26 404.87 254.13 404.82C252.96 404.78 251.99 405.38 250.86 405.51C247.04 405.96 242.83 403.6 239.17 404.92C238.93 405.53 238.7 406.13 238.47 406.74C236.44 406.73 234.41 406.73 232.39 406.73C232 406.13 231.61 405.53 231.22 404.92C229.17 407.07 227.34 405.65 224.19 405.17C219.37 404.44 214.32 405.09 209.48 404.66C207.06 404.6 204.64 404.53 202.23 404.46C202.33 402.83 198.82 403.52 197.55 403.52C198.04 404.24 197.95 404.35 197.32 405.09C196.93 404.88 196.54 404.67 196.15 404.46C193.81 404.31 191.47 404.16 189.14 404.01C189.06 403.91 188.98 403.8 188.9 403.7C188.98 403.48 189.06 403.27 189.14 403.05C187.11 402.9 185.08 402.74 183.06 402.59C182.34 402.84 181.62 403.09 180.9 403.33C177.78 402.57 174.58 403.25 171.38 402.84C167.96 402.39 166.16 400.96 162.48 401.37C162.02 400.84 161.55 400.31 161.08 399.78C157.35 400.15 153.43 397.96 150.79 398.72C149.94 398.06 149.08 397.4 148.22 396.74C145.99 397.19 141.53 396.05 140.27 393.94C137.81 394.42 135.49 392.65 133.4 391.46C128.26 388.53 121.77 385.37 117.8 380.77C118.28 380.49 118.76 380.2 119.23 379.91C118.45 379.13 117.67 378.35 116.89 377.57C119.3 379.05 121.72 380.53 124.14 382.01C123.87 380.39 125.52 378.1 126.48 376.87C126.64 378.74 126.79 380.61 126.95 382.48C127.88 382.48 128.82 382.48 129.75 382.48C129.41 381.44 129.09 381.31 129.99 380.38C129.36 379.44 128.74 378.51 128.12 377.57C129.85 376.22 129.77 376.47 129.29 374.06C128.66 374.69 128.04 375.31 127.42 375.93C127.28 375.24 127.46 373.55 127.08 373C126.45 372.1 121.22 372.17 120.17 370.56C120.79 370.09 121.41 369.62 122.04 369.15C122.04 367.2 121.95 366.35 120.17 365.41C120.17 364.17 120.17 362.92 120.17 361.67C122.42 362.42 122.79 366.12 124.61 366.58C125.46 365.44 120.33 359.46 119.23 358.4C121.99 357.72 121.27 356.84 120.17 354.5ZM112.22 373C111.02 371.88 109.83 370.75 108.63 369.62C108.67 369.39 108.7 369.15 108.74 368.92C109.04 368.16 109.34 367.39 109.65 366.63C111.6 369.5 113.54 372.36 115.49 375.23C114.4 374.49 113.31 373.75 112.22 373ZM390.66 375C391.9 375.39 392.51 376.5 392.53 377.8C391.04 378.25 391.78 377.11 390.66 377.04C389.86 377 388.62 378.66 387.39 378.74C388.48 377.49 389.57 376.25 390.66 375Z" fill="#59b275" fill-rule="evenodd" stroke="#59b275" stroke-width="0.25" stroke-linejoin="round"/>
<path d="M339.37 145.62C355.48 143.01 369.96 154.45 376.04 168.48C376.69 169.98 377.6 171.1 377.87 172.77C380.94 191.46 365.08 209.79 346.71 211.75C325.91 213.97 307.03 193.79 310.31 173.18C312.65 158.41 325.18 147.93 339.37 145.62ZM216.49 243.08C216.63 243.12 216.78 243.17 216.92 243.22C218.57 244.4 220.22 245.58 221.87 246.76C219.69 246.72 218.23 244.75 216.23 243.84C215.77 243.14 215.51 243.46 216.49 243.08ZM151.57 296C151.94 295.98 152.3 295.97 152.66 295.95C152.77 296.19 152.87 296.42 152.97 296.65C150.92 298.53 148.87 300.41 146.82 302.29C146.75 302.91 146.69 303.54 146.62 304.16C143.57 302.33 140.52 300.5 137.47 298.67C137.39 298.08 137.31 297.5 137.23 296.91C140.04 298.67 142.85 300.43 145.65 302.2C147.63 300.13 149.6 298.06 151.57 296ZM168.72 296.03C168.98 296.52 169.24 297.01 169.5 297.5C171.34 297.4 171.56 299.2 172.69 300.42C172.11 300.28 171.52 300.14 170.94 299.99C170.93 300.07 170.91 300.14 170.9 300.21C170.35 299.59 169.79 298.97 169.24 298.35C169.17 297.96 169.1 297.57 169.03 297.18C168.44 296.86 167.84 296.53 167.25 296.21C167.74 296.15 168.23 296.09 168.72 296.03ZM112.26 305.06C111.31 307.41 110.36 309.76 109.41 312.11C109.09 312.03 108.77 311.95 108.45 311.88C108.38 311.72 108.31 311.56 108.24 311.41C108.24 310.94 108.24 310.47 108.24 310.01C108.32 309.85 108.4 309.69 108.48 309.54C108.63 309.46 108.79 309.38 108.95 309.3C109.62 307.67 110.29 306.03 110.97 304.39C111.23 304.32 111.49 304.24 111.75 304.16C111.99 303.84 112.22 303.51 112.45 303.19C112.39 303.82 112.32 304.44 112.26 305.06ZM398.85 361.12C398.84 361.22 398.83 361.33 398.82 361.44C398.71 361.39 398.6 361.35 398.5 361.3C398.61 361.24 398.73 361.18 398.85 361.12Z" fill="#fdf858" fill-rule="evenodd" stroke="#fdf858" stroke-width="0.25" stroke-linejoin="round"/>
<path d="M340.87 139.5C344.45 139.78 348.04 140.07 351.62 140.35C353.32 140.79 355.02 141.23 356.72 141.67C358.38 143.8 364.93 146.3 367.81 149.08C382.24 162.97 384.73 172.62 382.9 192.23C381 197.29 379.93 202.24 376.92 206.95C365.81 224.34 346.91 229.17 328.04 222.98C322.69 221.22 318.67 216.85 314.27 213.57C313.07 211.16 310.72 209.41 309.4 207.04C306.42 201.69 303.41 195.78 302.6 189.6C301.73 182.91 302.47 176.02 303.86 169.5C304.38 167.07 306.08 164.82 306.33 162.36C307.87 160.5 308.8 158.17 310.3 156.23C315.34 149.71 322.2 144.73 329.82 141.73C333.32 140.34 337.34 140.7 340.87 139.5ZM339.37 145.62C325.18 147.93 312.65 158.41 310.31 173.18C307.03 193.79 325.91 213.97 346.71 211.75C365.08 209.79 380.94 191.46 377.87 172.77C377.6 171.1 376.69 169.98 376.04 168.48C369.96 154.45 355.48 143.01 339.37 145.62ZM401.07 360.78C401.27 360.92 401.46 361.06 401.65 361.21C401.42 361.6 401.18 361.98 400.95 362.37C400.6 362.53 400.25 362.69 399.9 362.85C398.22 364.3 396.55 365.74 394.87 367.19C394.81 367.14 394.76 367.09 394.7 367.04C393.98 367.3 393.26 367.56 392.53 367.82C393.12 364.65 397.45 363.72 398.82 361.44C398.83 361.33 398.84 361.22 398.85 361.12C399.39 360.87 399.94 360.61 400.48 360.36C400.68 360.5 400.88 360.64 401.07 360.78Z" fill="#fcd014" fill-rule="evenodd" stroke="#fcd014" stroke-width="0.25" stroke-linejoin="round"/>
<path d="M200.61 226.19C194.37 225.9 188.13 225.6 181.89 225.31C188.13 225.6 194.37 225.9 200.61 226.19ZM223.24 233.33C225.35 234.12 227.47 234.91 229.58 235.7C229.04 235.84 228.49 235.98 227.95 236.13C226.23 235.35 224.52 234.57 222.8 233.79C222.95 233.64 223.09 233.48 223.24 233.33ZM230.25 236.1C232.68 237.22 235.1 238.34 237.53 239.45C237.3 239.59 237.06 239.73 236.83 239.87C235.43 239.09 234.02 238.31 232.62 237.53C231.84 237.37 231.06 237.22 230.28 237.06C230.27 236.74 230.26 236.42 230.25 236.1ZM369.39 270.34C369.31 270.62 369.23 270.91 369.15 271.2C366.97 271.82 364.79 272.44 362.61 273.07C361.91 273.69 361.21 274.32 360.5 274.95C360.82 274.4 361.13 273.85 361.44 273.3C361.6 272.37 361.75 271.43 361.91 270.49C363.32 270.21 363.86 270.35 364.95 271.2C366.43 270.91 367.91 270.62 369.39 270.34ZM357.54 273.46C357.75 273.56 357.96 273.66 358.17 273.77C358.01 274.13 357.85 274.5 357.7 274.86C356.65 274.94 354.74 275.1 356.3 276.11C355.52 276.11 354.74 276.11 353.96 276.11C355.15 275.22 356.34 274.34 357.54 273.46ZM297.85 279.14C297.94 279.13 298.03 279.11 298.12 279.1C298.26 279.66 298.41 280.23 298.55 280.79C297.61 280.87 296.68 280.94 295.74 281.01C295.59 281.33 295.43 281.64 295.28 281.95C295.11 281.62 294.94 281.29 294.78 280.96C294.87 280.74 294.95 280.53 295.04 280.31C296.02 280.16 297.01 280 297.99 279.85C297.94 279.61 297.9 279.38 297.85 279.14ZM110.54 304.01C110.29 302.89 110.5 301.97 109.48 302.76C109.5 299.94 109.54 297.8 110.35 295.28C110.04 294.39 109.73 293.51 109.41 292.63C109.49 289.07 109.57 285.51 109.65 281.95C111.36 285.37 110.39 290.06 110.35 293.87C110.82 294.03 111.28 294.19 111.75 294.34C111.57 297.11 110 298.67 110.58 301.59C111.36 301.12 112.14 300.65 112.92 300.19C112.13 301.46 111.33 302.74 110.54 304.01ZM192.98 339.48C194.33 333.26 194.77 326.86 192.28 320.85C192.71 320.74 193.14 320.63 193.58 320.53C192.58 322.08 193.98 321.65 194.98 322.4C196.73 327.11 197.05 337.63 193.34 341.33C193.22 340.72 193.1 340.1 192.98 339.48ZM320.09 344.61C319.92 346.6 319.76 348.6 319.59 350.6C318.69 349.85 318.87 350 317.72 350.74C314.51 348.24 311.08 345.67 307 344.93C309.05 343.54 311.93 346.71 313.04 345.07C314.53 345.93 316.01 346.79 317.49 347.65C317.88 345.07 318.27 342.5 318.66 339.93C319.13 341.49 319.61 343.05 320.09 344.61ZM259.51 388.66C255.3 388.72 251.09 388.78 246.88 388.85C251.09 388.78 255.3 388.72 259.51 388.66Z" fill="#97cb3b" fill-rule="evenodd" stroke="#97cb3b" stroke-width="0.25" stroke-linejoin="round"/>
</svg>