<?xml version="1.0" encoding="UTF-8"?>
<svg xmlns="http://www.w3.org/2000/svg" viewBox="0 0 512 512" width="512" height="512">
<path d="M390.95 308.96C384.59 318.77 372.01 321.97 361.21 323.11C341.91 325.15 322.15 324.43 302.76 324.33C297.15 324.3 291.53 324.51 285.93 324.55C283.64 324.57 280.7 324.05 278.59 325.16C275.44 326.83 276.78 336.93 277.21 340.16C278.49 349.74 280.73 358.97 281.2 368.69C281.39 372.63 281.46 378.47 278.91 381.55C280.84 388.19 263.38 389.96 259.27 389.83C257.9 389.79 252.54 390.01 252.73 388.56C251.01 389.41 245.06 387.63 244.31 386.22C242.54 386.77 240.3 385.33 239.17 383.88C235.34 384.12 219.92 375.68 216.81 372.66C217.31 372.58 217.81 372.51 218.3 372.43C220.14 373.75 223.39 376.04 225.69 375.7C223.45 372.14 215.89 369.9 212.5 367.53C200.04 358.83 187.56 349.67 174.95 341.03C171.68 338.79 163.1 334.05 161.48 330.81C162.99 329.46 165.58 331.84 167.63 331.79C168.19 332.55 168.75 333.32 169.32 334.09C171.25 333.87 173.18 333.65 175.11 333.43C175.89 333.95 176.67 334.46 177.45 334.98C178.23 334.65 179.01 334.32 179.78 333.99C181.9 334.99 182.05 337.42 183.76 338.75C184.79 339.55 186.66 339.37 187.59 340.1C188.11 340.5 187.5 341.16 187.31 341.57C188.11 341.57 188.91 341.57 189.71 341.57C189.94 342.5 190.16 343.44 190.39 344.37C192.5 344.65 193.9 344.05 195.68 343.03C196.01 343.79 196.33 344.55 196.66 345.31C197.96 345.23 198.9 344.12 200.26 344.33C202.31 344.65 204.48 347.1 206.3 348.02C212.93 351.35 219.57 355.33 226.12 359.06C229.17 360.8 236.18 365.47 239.58 363.54C236.22 362.8 234.21 360.66 231.28 359.01C226.75 356.44 221.72 354.69 217.39 351.88C213.67 349.47 209.98 346.82 206.21 344.38C199.73 340.2 192.73 336.8 186.43 332.36C177.66 326.18 169.32 319.54 160.6 313.28C151.06 306.45 141.93 299.53 134.15 290.67C126.31 281.76 117.78 271.01 118.27 258.34C118.88 242.45 135.25 231.85 145.35 221.8C169.05 198.21 198.73 177.92 225.46 157.88C237.67 148.73 246.25 139.24 262.08 136.07C263.64 135.76 265.04 134.99 266.63 134.9C266.67 136.57 267.14 138.4 267.04 140.04C266.79 144.11 265.64 147.45 267.95 151.26C267.69 152.2 267.44 153.13 267.18 154.07C268.29 156.29 270.08 155.45 271.9 156.25C272.3 158.52 270.64 161.03 273.77 161.28C275.44 159.64 274.67 156.45 275.17 154.17C277.52 157.77 274.31 163.23 274.04 167.16C273.46 175.49 273.71 177.67 278.04 184.46C277.24 185.55 276.44 186.64 275.64 187.73C274.51 186.62 273.54 187.26 272.83 185.89C274.18 184.44 275.29 183.55 274.24 181.59C273.72 181.45 273.2 181.32 272.68 181.19C272.26 180.18 271.85 179.17 271.43 178.16C270.44 179.25 269.61 180.57 269.58 182.59C269.21 182.46 268.7 181.83 268.3 182.04C267.43 182.48 267.9 187.14 268.16 188.04C269.71 188.77 270.79 188.23 272.37 187.78C275.46 189.56 278.13 188.34 281.57 189.62C283.01 190.15 283.04 191.76 283.95 192.72C285.14 193.97 288.44 196.05 290.16 196.39C291.13 196.58 291.97 196.2 292.94 196.27C299.21 196.73 305.34 198.32 311.65 198.58C319.4 198.91 327.3 197.44 335.02 197.77C338.55 197.91 342.14 198.39 345.63 198.5C348.73 198.59 351.68 197.36 354.65 197.49C362.84 197.85 369.55 202.67 377.57 203.95C379.1 204.2 380.7 203.85 382.25 203.99C383.45 205.54 383.51 206.6 385.48 207.37C385.44 209.37 387.41 210 388.68 211.44C389.57 212.45 392.63 221.81 392.5 222.33C391.58 222.58 390.65 222.83 389.73 223.08C389.17 225.91 390.79 227.76 391.16 230.38C391.49 232.73 391.86 236.35 391.74 238.65C391.67 240.18 391.03 241.8 390.91 243.38C390.63 247.09 391.05 250.88 390.34 254.57C390.12 255.74 389.19 256.63 389.06 257.87C388.9 259.51 389.51 261.22 389.3 262.82C389.11 264.23 387.88 265.27 387.51 266.65C386.36 270.9 385.94 276.5 387.39 280.09C388.07 277.35 389.71 275.4 389.94 272.37C391.23 273.14 392.52 273.92 393.81 274.7C394.24 272.94 393.85 272.23 395.81 271.32C395.96 272.54 396.12 273.77 396.27 274.99C398.48 274.47 397.67 273.14 397.02 271.43C397.67 270.03 398.31 268.62 398.96 267.22C398.56 265.82 398.16 264.42 397.76 263.01C399.68 261.35 400.37 258.18 398.61 256.17C396.84 255.95 395.07 255.74 393.3 255.53C393.32 252.57 393.34 249.61 393.36 246.65C394.71 245.55 394.99 244.22 396.27 243.08C396.74 242.66 398.02 242.32 398.28 241.84C398.67 241.15 398.07 240.62 397.76 240.1C396.95 240.69 396.15 241.27 395.34 241.85C394.22 240.07 393.73 238.39 394.57 236.36C394.13 235.43 393.68 234.49 393.23 233.56C393.64 232.93 394.04 232.31 394.44 231.69C393.3 229.8 393.63 230.3 393.47 227.66C393 227.01 392.53 226.37 392.07 225.73C392.44 223.56 394.24 223.18 395.81 224.55C395.43 225.22 395.06 225.88 394.68 226.54C395.68 227.4 396.68 228.26 397.68 229.11C398.17 227.75 398.27 227.48 397.13 226.54C397.62 225.06 398.12 223.57 398.61 222.09C400.6 223.45 399.64 226.29 399.84 228.4C399.97 229.75 400.98 230.92 401.12 232.2C401.59 236.32 402.08 240.86 402.23 245.25C402.7 258.41 401.31 270.89 398.24 283.54C396.27 291.63 396.12 296.75 391.22 304.04C389.55 306.54 387.23 309.37 385.06 311.41C383.25 313.11 380.33 313.55 378.97 315.81C376.83 316.06 375.74 316.97 373.86 317.66C372.3 318.22 370.43 317.86 368.81 318.16C366.96 318.51 365.42 319.57 363.54 319.82C357.47 320.63 350.96 320.22 344.84 320.18C337.66 320.14 330.49 320.66 323.33 320.68C318.47 320.69 313.74 321.51 308.84 321.4C305.76 321.33 302.19 320.33 299.72 322.4C304.58 323.65 310.35 322.13 315.38 322.44C325.97 323.11 336.58 322.5 347.18 322.06C354.1 321.77 360.89 322.2 367.74 320.68C373.59 319.37 379.86 316.88 384.68 313.38C386.23 312.26 389.42 308.23 390.95 308.96Z" fill="#fee227" fill-rule="evenodd" stroke="#fee227" stroke-width="0.25" stroke-linejoin="round"/>
<path d="M266.99 105.28C263.71 105.2 260.43 105.11 257.16 105.03C260.71 104.15 264.62 104.37 268.2 104.97C267.79 105.08 267.39 105.18 266.99 105.28ZM241.74 108.18C241.82 108.59 241.89 109.01 241.97 109.42C243.19 109.5 244.42 109.57 245.64 109.65C244.57 109.92 243.51 110.2 242.44 110.48C241.11 110.08 239.79 109.67 238.46 109.27C239.55 108.91 240.65 108.54 241.74 108.18ZM282.89 108.19C283.64 108.36 284.4 108.54 285.16 108.71C285.03 108.85 284.89 108.99 284.76 109.13C283.74 109.63 282.73 110.13 281.72 110.63C280.95 110.31 280.18 109.98 279.41 109.65C280.49 109.62 281.57 109.59 282.65 109.55C282.73 109.1 282.81 108.64 282.89 108.19ZM298.83 120.25C299.21 120.61 299.59 120.97 299.98 121.34C300.16 122.04 300.34 122.74 300.52 123.44C299.09 123.53 298.87 123.81 298.55 125.26C298.28 124.26 298.02 123.27 297.75 122.27C298.11 121.6 298.47 120.92 298.83 120.25ZM301.18 124.47C301.54 125.71 301.89 126.95 302.24 128.19C300.94 128.33 300.92 128.47 300.42 129.72C300.23 128.95 300.05 128.18 299.86 127.42C300.2 127.21 300.54 127.01 300.89 126.81C300.99 126.03 301.08 125.25 301.18 124.47ZM305.48 136.59C306.91 140.16 306.93 151.14 305.46 154.71C304.89 152.04 305.41 148.94 303.58 147.05C303.42 145 303.65 144.46 305.32 143.31C304.97 140.87 304.93 138.95 305.48 136.59ZM304.04 158.9C303.81 160.33 303.58 161.76 303.35 163.19C302.55 161.5 303.3 160.15 301.83 158.74C302.14 157.38 302.45 156.01 302.76 154.65C302.85 155.7 302.93 156.75 303.02 157.81C303.36 158.17 303.7 158.54 304.04 158.9ZM157.91 163.63C157.95 163.87 158 164.11 158.04 164.35C157.22 164.98 156.39 165.6 155.56 166.22C155.68 166.69 155.8 167.16 155.92 167.63C155.21 167.5 154.49 167.37 153.78 167.23C155.16 166.03 156.53 164.83 157.91 163.63ZM372.66 173.06C373.57 173.31 374.48 173.57 375.39 173.82C372.94 174.12 371.6 175 368.99 174.64C370.21 174.11 371.44 173.58 372.66 173.06ZM379.21 174.9C380.31 175.14 381.42 175.39 382.52 175.63C382.28 175.85 382.03 176.06 381.78 176.28C379.75 175.85 378.83 177.23 376.68 176.51C377.52 175.97 378.36 175.44 379.21 174.9ZM389.96 178.65C390.79 179.11 391.61 179.56 392.44 180.02C392 180 391.57 179.99 391.13 179.97C390.06 181.18 389.22 181.22 388 180.25C388.55 180.1 389.09 179.94 389.63 179.78C389.67 179.75 389.7 179.72 389.73 179.69C389.81 179.34 389.88 179 389.96 178.65ZM393.7 180.94C394.45 181.18 395.2 181.42 395.95 181.65C395.82 181.86 395.7 182.07 395.57 182.28C395.34 182.3 395.11 182.33 394.87 182.36C394.81 182.75 394.75 183.14 394.69 183.53C393.71 183.21 392.74 182.9 391.77 182.59C392.34 182.4 392.9 182.22 393.47 182.03C393.55 181.67 393.62 181.3 393.7 180.94ZM399.81 184.73C400.71 185.19 401.62 185.64 402.52 186.1C402.27 186.33 402.02 186.56 401.77 186.8C403.06 187.96 404.34 189.12 405.63 190.28C405.85 190.12 406.08 189.96 406.31 189.8C411.16 194.31 414.51 198.83 417.61 204.57C418.07 205.44 419.13 205.99 419.46 206.93C419.82 207.98 419.45 209.09 419.93 210.12C420.31 210.91 421.13 211.25 421.49 212.06C422.04 213.29 421.57 214.74 422.01 215.98C422.32 216.87 423.25 217.28 423.59 218.13C424.18 219.64 423.64 221.26 423.97 222.82C424.41 224.92 425.81 226.72 426.01 228.88C426.77 237.3 425.75 246.12 426.02 254.6C426.32 264.32 426.52 274.38 425.96 284.05C425.73 287.95 424.4 291.49 423.98 295.28C423.76 297.31 424.31 299.32 423.87 301.34C423.57 302.73 422.45 303.65 422.14 305C421.86 306.17 422.14 307.48 421.59 308.61C421.18 309.44 420.26 309.84 419.95 310.75C419.58 311.82 419.94 312.92 419.66 313.99C419.34 315.2 416.54 319.78 415.78 321.09C412.98 325.96 407.38 336.1 402.15 338.75C401.27 339.19 400.32 338.98 399.45 339.38C398.59 339.79 398.39 340.81 397.63 341.28C394.51 343.22 391.1 344.41 387.72 345.84C386.84 346.22 386.45 347.17 385.54 347.5C384.34 347.95 383.05 347.64 381.82 347.99C380.67 348.31 379.75 349.23 378.58 349.6C376.41 350.28 373.9 349.65 371.64 349.97C369.29 350.3 367.25 351.5 364.93 351.75C353.19 353.04 340.69 351.86 328.94 351.71C323.26 351.64 308.84 350.1 304.63 353.02C303.93 358.69 305.8 360.48 306.26 365.4C307.35 377.11 306.83 389.79 301.82 400.22C298.79 406.52 291.4 413.37 284.93 416.05C283.73 416.55 282.45 416.11 281.24 416.55C279.75 417.08 278.66 418.16 277.04 418.43C272.34 419.2 265.73 418.66 260.91 418.41C258.39 418.28 256.59 416.97 254.16 416.46C252.6 416.14 251.02 416.63 249.47 416.39C248.02 416.16 247.24 415.01 245.96 414.52C244.84 414.09 243.53 414.41 242.46 413.94C237.24 411.63 232.25 408.91 227.02 406.28C223.68 404.6 220.06 403.27 216.81 401.58C212.58 399.37 208.86 395.9 204.48 393.81C199.79 391.56 194.65 388.71 190.42 385.43C187.01 382.77 182.94 381.14 179.38 378.74C175.29 375.97 171.29 373.1 167.15 370.4C159.65 365.5 152.84 359.35 145.65 353.94C142.11 351.28 138.7 347.85 134.93 345.52C133.48 344.63 130.66 343.62 130.69 341.8C127.02 340.82 118.28 332.35 115.06 329.38C103.33 318.56 83.61 302.48 79.71 287.31C79.39 286.05 78.41 285.62 77.88 284.52C77.3 283.34 77.77 281.93 77.42 280.69C76.39 276.97 74.25 274.06 75.93 269.92C75.95 265.67 75.98 261.42 76 257.17C75.97 255.06 75.93 252.96 75.9 250.86C76.11 250.63 76.33 250.41 76.54 250.18C76.71 251.65 76.88 253.13 77.06 254.6C77.63 255.1 78.21 255.61 78.79 256.12C79.65 260.95 78.89 268.61 79.2 273.76C79.6 280.39 84.98 291.77 88.79 297.22C91.17 300.61 93.53 305.52 97.96 306.26C101.11 312.58 108.2 319.95 114.56 322.86C115.01 323.59 115.03 324.47 115.44 325.13C116.73 327.23 126.44 334.49 128.85 336.15C130.35 337.19 134.23 339.83 135.36 339.46C136.91 340.78 137.08 341.76 139.34 342.03C140.21 344.03 140.8 346.29 143.55 346.24C143.94 346.97 144.33 347.7 144.72 348.43C145.42 348.48 146.12 348.53 146.82 348.58C147.2 347.35 146.76 346.6 145.42 346.71C145.42 345.78 145.42 344.84 145.42 343.91C144.72 344.14 144.01 344.37 143.31 344.61C143.58 343.03 142.84 342.51 141.68 341.57C142.53 340.91 143.39 340.26 144.25 339.6C146.13 339.94 148.02 340.29 149.9 340.63C149.58 342.23 149.25 343.83 148.92 345.43C151.21 345.33 150.97 344.08 152.66 343.17C153.56 344.24 153.98 345.04 152.69 345.78C153.3 346.47 153.92 347.17 154.54 347.86C155.96 345.99 158.13 347.74 159.21 349.22C161.9 347.14 163.24 345.54 166.69 346.35C167 347 167.32 347.66 167.63 348.31C169.38 348.93 170.31 349.65 171.37 351.15C174.62 350.26 180.88 356.34 183.52 358.19C184.27 358.72 185.18 358.51 185.87 359.09C187.32 360.32 191.04 363.5 192.61 362.14C191.61 361.18 190.61 360.21 189.6 359.25C186.94 358.53 185.72 356.31 183.36 355.11C178.41 352.6 173.62 349.23 169.11 345.95C167.72 344.93 165.27 342.77 164.3 342.35C163.33 341.93 163.17 342.71 162.25 342.03C162.9 340.04 160.75 340.01 159.35 338.85C156.04 336.1 152.03 333.98 149.09 330.87C146.38 328.02 143.11 326.03 140.29 323.32C131.76 315.12 122.52 307.58 114.41 299.14C111.83 296.46 104.64 290.18 104.97 286.52C109.77 291.27 114.26 297.03 119.11 301.98C126.42 309.45 135.28 315.45 143.12 322.37C146.05 324.95 156.73 334.66 159.91 335.09C161.79 335.22 172.5 343.68 175.21 345.42C189.18 354.35 202.24 364.97 216.81 372.66C219.92 375.68 235.34 384.12 239.17 383.88C240.3 385.33 242.54 386.77 244.31 386.22C245.06 387.63 251.01 389.41 252.73 388.56C252.54 390.01 257.9 389.79 259.27 389.83C263.38 389.96 280.84 388.19 278.91 381.55C281.46 378.47 281.39 372.63 281.2 368.69C280.73 358.97 278.49 349.74 277.21 340.16C276.78 336.93 275.44 326.83 278.59 325.16C280.7 324.05 283.64 324.57 285.93 324.55C291.53 324.51 297.15 324.3 302.76 324.33C322.15 324.43 341.91 325.15 361.21 323.11C372.01 321.97 384.59 318.77 390.95 308.96C393.92 305.66 396.14 301.68 397.99 297.62C398.8 295.82 399.32 292.45 400.51 291.3C402.19 290.07 402.9 286.12 403.29 283.81C404.35 277.41 405.65 271.26 406.1 264.74C407.64 243.01 408.15 222.61 396.89 203.28C394.76 199.61 390.83 196.35 387.87 193.34C392.58 193.81 396.93 202.13 399.37 205.43C409.86 219.65 412.02 249.93 409.74 267.23C409.26 270.85 408.47 278.37 407.51 281.52C406.7 284.16 404.74 288.41 406.79 290.6C407.03 289.74 407.26 288.89 407.5 288.03C408.83 289.74 410.23 290.67 412.64 290.83C415.67 289.32 416.59 291.96 418.25 289.43C418.68 291.57 418.24 291.05 416.88 292C416.65 294.23 415.5 297.37 416.85 299.25C416.54 300.97 416.22 302.68 415.91 304.39C414.88 305.24 414.77 305.88 414.98 307.2C414.47 307.95 413.67 308.14 413.22 308.87C411.74 311.3 411.09 318.74 409.83 320.29C409.83 320.14 409.82 318.9 409.74 318.89C408.97 318.78 408.65 320.53 408.52 320.99C409.43 320.96 410.33 320.92 411.24 320.88C414.64 315.94 419.81 302.46 420.59 296.51C421.15 292.2 420.82 288.09 421.14 283.82C423.12 257.86 426.52 229.27 414.58 205.18C412.11 200.21 408.17 194.16 403.86 190.67C401.16 188.48 397.83 187.09 395.37 184.46C397.86 183.62 397.41 184.72 399.08 186.03C399.32 185.59 399.57 185.16 399.81 184.73ZM130.92 186.04C130.84 186.52 130.77 187.01 130.69 187.5C129.16 188.67 127.63 189.84 126.11 191.01C125.92 191.63 125.74 192.25 125.56 192.88C125.26 192.77 124.96 192.67 124.66 192.56C124.62 192.36 124.59 192.15 124.55 191.94C126.68 189.97 128.8 188 130.92 186.04ZM80.46 240.01C80.99 240.64 81.53 241.26 82.06 241.89C81.75 242.58 81.44 243.28 81.13 243.97C80.97 243.38 80.81 242.78 80.66 242.18C80.32 242.19 79.99 242.2 79.66 242.21C79.77 241.51 79.87 240.8 79.98 240.1C80.14 240.07 80.3 240.04 80.46 240.01ZM113.86 312.34C114.18 314.75 112.45 313.93 111.99 316.08C111.13 315.38 110.27 314.68 109.41 313.98C111.82 314.43 111.94 312.91 113.86 312.34Z" fill="#cf7c10" fill-rule="evenodd" stroke="#cf7c10" stroke-width="0.25" stroke-linejoin="round"/>
<path d="M257.16 105.03C260.43 105.11 263.71 105.2 266.99 105.28C268.03 105.83 268.52 105.26 269.65 105.24C271 105.22 278.76 106.24 279.53 106.9C279.98 107.28 279.91 107.94 280.31 108.48C281.17 108.38 282.03 108.29 282.89 108.19C282.81 108.64 282.73 109.1 282.65 109.55C281.57 109.59 280.49 109.62 279.41 109.65C280.18 109.98 280.95 110.31 281.72 110.63C282.73 110.13 283.74 109.63 284.76 109.13C285.79 109.98 287.36 109.73 288.6 110.5C292.61 112.98 296.25 116.28 298.83 120.25C298.47 120.92 298.11 121.6 297.75 122.27C298.02 123.27 298.28 124.26 298.55 125.26C298.87 123.81 299.09 123.53 300.52 123.44C300.74 123.79 300.96 124.13 301.18 124.47C301.08 125.25 300.99 126.03 300.89 126.81C300.54 127.01 300.2 127.21 299.86 127.42C300.05 128.18 300.23 128.95 300.42 129.72C300.92 128.47 300.94 128.33 302.24 128.19C302.26 128.48 302.27 128.77 302.29 129.05C304.7 129.84 304.74 134.18 305.48 136.59C304.93 138.95 304.97 140.87 305.32 143.31C303.65 144.46 303.42 145 303.58 147.05C305.41 148.94 304.89 152.04 305.46 154.71C305.18 154.89 304.9 155.06 304.63 155.24C304.47 156.02 304.32 156.8 304.16 157.57C304.12 158.02 304.08 158.46 304.04 158.9C303.7 158.54 303.36 158.17 303.02 157.81C302.93 156.75 302.85 155.7 302.76 154.65C302.45 156.01 302.14 157.38 301.83 158.74C303.3 160.15 302.55 161.5 303.35 163.19C302.92 163.58 302.49 163.96 302.06 164.35C301.98 166.46 301.9 168.56 301.82 170.67C314.5 173.41 330.88 170.71 344.14 171.28C348.94 171.49 353.61 170.98 358.4 171.49C359.78 171.64 363.58 171.57 362.61 173C365.91 172.56 369.25 172.54 372.66 173.06C371.44 173.58 370.21 174.11 368.99 174.64C371.6 175 372.94 174.12 375.39 173.82C376.66 174.18 377.94 174.54 379.21 174.9C378.36 175.44 377.52 175.97 376.68 176.51C378.83 177.23 379.75 175.85 381.78 176.28C382.03 176.06 382.28 175.85 382.52 175.63C382.9 176 383.27 176.37 383.65 176.75C385.92 176.16 387.93 177.37 389.96 178.65C389.88 179 389.81 179.34 389.73 179.69C389.7 179.72 389.67 179.75 389.63 179.78C389.09 179.94 388.55 180.1 388 180.25C389.22 181.22 390.06 181.18 391.13 179.97C391.57 179.99 392 180 392.44 180.02C392.47 179.97 392.5 179.92 392.53 179.88C392.92 180.23 393.31 180.59 393.7 180.94C393.62 181.3 393.55 181.67 393.47 182.03C392.9 182.22 392.34 182.4 391.77 182.59C392.74 182.9 393.71 183.21 394.69 183.53C394.75 183.14 394.81 182.75 394.87 182.36C395.11 182.33 395.34 182.3 395.57 182.28C395.96 182.34 396.35 182.4 396.74 182.47C397.76 183.22 398.79 183.98 399.81 184.73C399.57 185.16 399.32 185.59 399.08 186.03C397.41 184.72 397.86 183.62 395.37 184.46C397.83 187.09 401.16 188.48 403.86 190.67C408.17 194.16 412.11 200.21 414.58 205.18C426.52 229.27 423.12 257.86 421.14 283.82C420.82 288.09 421.15 292.2 420.59 296.51C419.81 302.46 414.64 315.94 411.24 320.88C410.33 320.92 409.43 320.96 408.52 320.99C408.65 320.53 408.97 318.78 409.74 318.89C409.82 318.9 409.83 320.14 409.83 320.29C411.09 318.74 411.74 311.3 413.22 308.87C413.67 308.14 414.47 307.95 414.98 307.2C414.77 305.88 414.88 305.24 415.91 304.39C416.22 302.68 416.54 300.97 416.85 299.25C415.5 297.37 416.65 294.23 416.88 292C418.24 291.05 418.68 291.57 418.25 289.43C416.59 291.96 415.67 289.32 412.64 290.83C410.23 290.67 408.83 289.74 407.5 288.03C407.26 288.89 407.03 289.74 406.79 290.6C404.74 288.41 406.7 284.16 407.51 281.52C408.47 278.37 409.26 270.85 409.74 267.23C412.02 249.93 409.86 219.65 399.37 205.43C396.93 202.13 392.58 193.81 387.87 193.34C390.83 196.35 394.76 199.61 396.89 203.28C408.15 222.61 407.64 243.01 406.1 264.74C405.65 271.26 404.35 277.41 403.29 283.81C402.9 286.12 402.19 290.07 400.51 291.3C400.07 289.41 401.59 287.54 402.04 285.69C403.01 281.7 403.71 277.48 404.42 273.43C405.97 264.6 406.42 247.95 405.87 238.93C405.46 232.17 404.05 225.36 402.53 218.83C401.73 215.38 397.71 211 398.14 207.61C395.62 206 392.72 200.01 390.08 197.44C382.11 189.68 372.55 185.59 361.65 183.86C355.2 182.84 348.56 183.35 342.03 183.17C329.91 182.83 317.69 182.84 305.56 182.96C300.12 183.02 287.13 184.42 282.51 182.51C272.99 178.58 280.46 158.4 281.17 150.8C281.38 148.61 281.93 140.38 283.12 139.34C282.57 135.98 282.02 132.63 281.47 129.27C278.2 115.77 260.46 117.37 250.07 120.34C246.89 121.25 242.89 121.59 240.34 123.96C240.1 123.94 239.87 123.93 239.63 123.91C239.32 124.38 239.01 124.86 238.7 125.34C238.47 125.29 238.23 125.24 238 125.2C236.44 126.25 234.88 127.3 233.32 128.35C231.42 128.07 229.46 129.88 227.85 130.83C223.67 133.3 219.42 135.73 215.49 138.58C214.25 139.48 210.4 140.87 210.75 142.61C210.72 142.57 210.68 142.54 210.64 142.5C210.33 143 210.02 143.51 209.71 144.01C209.24 143.7 208.77 143.39 208.31 143.08C208.1 143.46 207.89 143.83 207.68 144.21C206.88 144.02 204.87 145.73 205.03 146.82C202 147 190.12 156.67 186.99 159.16C185.83 160.1 181.91 162.24 182.26 163.65C182.14 163.78 182.01 163.9 181.89 164.03C178.84 163.83 175.01 168.6 172.62 170.45C165.01 176.35 157.19 182.12 150.15 188.75C148.68 189.97 147.2 191.19 145.73 192.41C145.78 192.57 145.83 192.72 145.88 192.88C144.38 193.22 142.82 195.19 141.67 196.26C138.39 199.28 131.95 203.21 130.45 207.37C128.18 207.4 124.55 212.06 122.79 213.67C117.37 218.6 111.67 223.1 106.54 228.35C104.78 230.14 103.12 234.11 101 234.96C99.92 238.59 98.84 242.22 97.76 245.85C95.91 248.76 96.17 262.13 97.77 265.23C98.37 268.45 98.08 272.75 100.76 274.94C100.11 276.16 101.18 278.62 102.63 277.74C101.86 279.85 104.3 282.44 105.34 284.29C107 287.92 110.87 291.4 113.52 294.42C123.13 305.4 135.5 313.99 146.01 324C148.45 326.32 159.27 332.48 159.91 335.09C156.73 334.66 146.05 324.95 143.12 322.37C135.28 315.45 126.42 309.45 119.11 301.98C114.26 297.03 109.77 291.27 104.97 286.52C104.64 290.18 111.83 296.46 114.41 299.14C122.52 307.58 131.76 315.12 140.29 323.32C143.11 326.03 146.38 328.02 149.09 330.87C152.03 333.98 156.04 336.1 159.35 338.85C160.75 340.01 162.9 340.04 162.25 342.03C163.17 342.71 163.33 341.93 164.3 342.35C165.27 342.77 167.72 344.93 169.11 345.95C173.62 349.23 178.41 352.6 183.36 355.11C185.72 356.31 186.94 358.53 189.6 359.25C190.61 360.21 191.61 361.18 192.61 362.14C191.04 363.5 187.32 360.32 185.87 359.09C185.18 358.51 184.27 358.72 183.52 358.19C180.88 356.34 174.62 350.26 171.37 351.15C170.31 349.65 169.38 348.93 167.63 348.31C167.32 347.66 167 347 166.69 346.35C163.24 345.54 161.9 347.14 159.21 349.22C158.13 347.74 155.96 345.99 154.54 347.86C153.92 347.17 153.3 346.47 152.69 345.78C153.98 345.04 153.56 344.24 152.66 343.17C150.97 344.08 151.21 345.33 148.92 345.43C149.25 343.83 149.58 342.23 149.9 340.63C148.02 340.29 146.13 339.94 144.25 339.6C143.39 340.26 142.53 340.91 141.68 341.57C142.84 342.51 143.58 343.03 143.31 344.61C144.01 344.37 144.72 344.14 145.42 343.91C145.42 344.84 145.42 345.78 145.42 346.71C146.76 346.6 147.2 347.35 146.82 348.58C146.12 348.53 145.42 348.48 144.72 348.43C144.33 347.7 143.94 346.97 143.55 346.24C140.8 346.29 140.21 344.03 139.34 342.03C137.08 341.76 136.91 340.78 135.36 339.46C134.23 339.83 130.35 337.19 128.85 336.15C126.44 334.49 116.73 327.23 115.44 325.13C115.03 324.47 115.01 323.59 114.56 322.86C108.2 319.95 101.11 312.58 97.96 306.26C93.53 305.52 91.17 300.61 88.79 297.22C84.98 291.77 79.6 280.39 79.2 273.76C78.89 268.61 79.65 260.95 78.79 256.12C78.21 255.61 77.63 255.1 77.06 254.6C76.88 253.13 76.71 251.65 76.54 250.18C77.26 248.07 77.97 245.96 78.69 243.84C79.04 243.76 79.38 243.69 79.72 243.61C79.7 243.14 79.68 242.67 79.66 242.21C79.99 242.2 80.32 242.19 80.66 242.18C80.81 242.78 80.97 243.38 81.13 243.97C81.44 243.28 81.75 242.58 82.06 241.89C81.53 241.26 80.99 240.64 80.46 240.01C80.91 239.73 81.37 239.45 81.83 239.17C81.86 238.23 81.9 237.3 81.93 236.36C84.29 234.79 84.83 232.38 86.28 230.07C87.77 227.71 90.43 225.64 92.58 224.2C92.21 222.66 94.73 221.22 95.73 220.2C98.11 217.76 104.05 209.88 107.08 209.71C106.7 208.32 107.32 207.64 108.71 208.07C108.72 206.11 112.73 201.56 115.02 201.76C118.24 198.7 121.45 195.63 124.66 192.56C124.96 192.67 125.26 192.77 125.56 192.88C125.74 192.25 125.92 191.63 126.11 191.01C127.63 189.84 129.16 188.67 130.69 187.5C130.77 187.01 130.84 186.52 130.92 186.04C132.48 185.04 134.04 184.05 135.6 183.06C136.05 181.62 136.92 181.07 138.4 180.72C139.86 177.14 150.23 170.28 153.78 167.23C154.49 167.37 155.21 167.5 155.92 167.63C155.8 167.16 155.68 166.69 155.56 166.22C156.39 165.6 157.22 164.98 158.04 164.35C158 164.11 157.95 163.87 157.91 163.63C159.02 162.17 164.22 158.04 165.76 158.51C166.14 157.83 166.09 157.19 166.51 156.51C166.85 155.94 173.82 152.01 174.17 151.96C174.51 150.05 177.31 147.04 179.32 147.76C180.66 145.61 184.97 141.6 187.5 141.44C187.09 139.82 189.46 139.42 190.77 139.57C191.41 137.65 194.77 135.11 196.85 135.36C199.37 131.85 202.7 130.66 206.2 128.35C206.06 127.6 214.11 121.57 215.57 120.87C216.44 120.46 217.29 120.62 218.13 120.64C218.53 118.33 221.96 116.27 224.2 116.89C224.67 116.13 225.14 115.36 225.61 114.6C226.54 114.58 227.48 114.57 228.41 114.56C229.82 112.7 230.46 111.72 233.32 111.99C233.99 110.39 235.36 110.12 237.06 110.58C237.53 110.14 237.99 109.71 238.46 109.27C239.79 109.67 241.11 110.08 242.44 110.48C243.51 110.2 244.57 109.92 245.64 109.65C244.42 109.57 243.19 109.5 241.97 109.42C241.89 109.01 241.82 108.59 241.74 108.18C242.52 108.2 243.3 108.22 244.08 108.24C244.87 107.69 244.52 107.19 245.37 106.74C247.23 105.77 254.62 105.33 257.16 105.03ZM402.52 186.1C403.78 187.33 405.05 188.57 406.31 189.8C406.08 189.96 405.85 190.12 405.63 190.28C404.34 189.12 403.06 187.96 401.77 186.8C402.02 186.56 402.27 186.33 402.52 186.1ZM76 257.17C75.98 261.42 75.95 265.67 75.93 269.92C74.36 267.77 74.27 259.57 76 257.17ZM113.86 312.34C111.94 312.91 111.82 314.43 109.41 313.98C110.27 314.68 111.13 315.38 111.99 316.08C112.45 313.93 114.18 314.75 113.86 312.34Z" fill="#eca414" fill-rule="evenodd" stroke="#eca414" stroke-width="0.25" stroke-linejoin="round"/>
<path d="M268.39 120.78C263.72 120.78 259.04 120.78 254.36 120.78C256.22 119.54 266.62 119.85 268.39 120.78ZM281.47 129.27C282.02 132.63 282.57 135.98 283.12 139.34C281.93 140.38 281.38 148.61 281.17 150.8C280.46 158.4 272.99 178.58 282.51 182.51C287.13 184.42 300.12 183.02 305.56 182.96C317.69 182.84 329.91 182.83 342.03 183.17C348.56 183.35 355.2 182.84 361.65 183.86C372.55 185.59 382.11 189.68 390.08 197.44C392.72 200.01 395.62 206 398.14 207.61C397.71 211 401.73 215.38 402.53 218.83C404.05 225.36 405.46 232.17 405.87 238.93C406.42 247.95 405.97 264.6 404.42 273.43C403.71 277.48 403.01 281.7 402.04 285.69C401.59 287.54 400.07 289.41 400.51 291.3C399.32 292.45 398.8 295.82 397.99 297.62C396.14 301.68 393.92 305.66 390.95 308.96C389.42 308.23 386.23 312.26 384.68 313.38C379.86 316.88 373.59 319.37 367.74 320.68C360.89 322.2 354.1 321.77 347.18 322.06C336.58 322.5 325.97 323.11 315.38 322.44C310.35 322.13 304.58 323.65 299.72 322.4C302.19 320.33 305.76 321.33 308.84 321.4C313.74 321.51 318.47 320.69 323.33 320.68C330.49 320.66 337.66 320.14 344.84 320.18C350.96 320.22 357.47 320.63 363.54 319.82C365.42 319.57 366.96 318.51 368.81 318.16C370.43 317.86 372.3 318.22 373.86 317.66C375.74 316.97 376.83 316.06 378.97 315.81C380.33 313.55 383.25 313.11 385.06 311.41C387.23 309.37 389.55 306.54 391.22 304.04C396.12 296.75 396.27 291.63 398.24 283.54C401.31 270.89 402.7 258.41 402.23 245.25C402.08 240.86 401.59 236.32 401.12 232.2C400.98 230.92 399.97 229.75 399.84 228.4C399.64 226.29 400.6 223.45 398.61 222.09C398.12 223.57 397.62 225.06 397.13 226.54C398.27 227.48 398.17 227.75 397.68 229.11C396.68 228.26 395.68 227.4 394.68 226.54C395.06 225.88 395.43 225.22 395.81 224.55C394.24 223.18 392.44 223.56 392.07 225.73C392.53 226.37 393 227.01 393.47 227.66C393.63 230.3 393.3 229.8 394.44 231.69C394.04 232.31 393.64 232.93 393.23 233.56C393.68 234.49 394.13 235.43 394.57 236.36C393.73 238.39 394.22 240.07 395.34 241.85C396.15 241.27 396.95 240.69 397.76 240.1C398.07 240.62 398.67 241.15 398.28 241.84C398.02 242.32 396.74 242.66 396.27 243.08C394.99 244.22 394.71 245.55 393.36 246.65C393.34 249.61 393.32 252.57 393.3 255.53C395.07 255.74 396.84 255.95 398.61 256.17C400.37 258.18 399.68 261.35 397.76 263.01C398.16 264.42 398.56 265.82 398.96 267.22C398.31 268.62 397.67 270.03 397.02 271.43C397.67 273.14 398.48 274.47 396.27 274.99C396.12 273.77 395.96 272.54 395.81 271.32C393.85 272.23 394.24 272.94 393.81 274.7C392.52 273.92 391.23 273.14 389.94 272.37C389.71 275.4 388.07 277.35 387.39 280.09C385.94 276.5 386.36 270.9 387.51 266.65C387.88 265.27 389.11 264.23 389.3 262.82C389.51 261.22 388.9 259.51 389.06 257.87C389.19 256.63 390.12 255.74 390.34 254.57C391.05 250.88 390.63 247.09 390.91 243.38C391.03 241.8 391.67 240.18 391.74 238.65C391.86 236.35 391.49 232.73 391.16 230.38C390.79 227.76 389.17 225.91 389.73 223.08C390.65 222.83 391.58 222.58 392.5 222.33C392.63 221.81 389.57 212.45 388.68 211.44C387.41 210 385.44 209.37 385.48 207.37C383.51 206.6 383.45 205.54 382.25 203.99C380.7 203.85 379.1 204.2 377.57 203.95C369.55 202.67 362.84 197.85 354.65 197.49C351.68 197.36 348.73 198.59 345.63 198.5C342.14 198.39 338.55 197.91 335.02 197.77C327.3 197.44 319.4 198.91 311.65 198.58C305.34 198.32 299.21 196.73 292.94 196.27C291.97 196.2 291.13 196.58 290.16 196.39C288.44 196.05 285.14 193.97 283.95 192.72C283.04 191.76 283.01 190.15 281.57 189.62C278.13 188.34 275.46 189.56 272.37 187.78C270.79 188.23 269.71 188.77 268.16 188.04C267.9 187.14 267.43 182.48 268.3 182.04C268.7 181.83 269.21 182.46 269.58 182.59C269.61 180.57 270.44 179.25 271.43 178.16C271.85 179.17 272.26 180.18 272.68 181.19C273.2 181.32 273.72 181.45 274.24 181.59C275.29 183.55 274.18 184.44 272.83 185.89C273.54 187.26 274.51 186.62 275.64 187.73C276.44 186.64 277.24 185.55 278.04 184.46C273.71 177.67 273.46 175.49 274.04 167.16C274.31 163.23 277.52 157.77 275.17 154.17C274.67 156.45 275.44 159.64 273.77 161.28C270.64 161.03 272.3 158.52 271.9 156.25C270.08 155.45 268.29 156.29 267.18 154.07C267.44 153.13 267.69 152.2 267.95 151.26C265.64 147.45 266.79 144.11 267.04 140.04C267.14 138.4 266.67 136.57 266.63 134.9C265.04 134.99 263.64 135.76 262.08 136.07C246.25 139.24 237.67 148.73 225.46 157.88C198.73 177.92 169.05 198.21 145.35 221.8C135.25 231.85 118.88 242.45 118.27 258.34C117.78 271.01 126.31 281.76 134.15 290.67C141.93 299.53 151.06 306.45 160.6 313.28C169.32 319.54 177.66 326.18 186.43 332.36C192.73 336.8 199.73 340.2 206.21 344.38C209.98 346.82 213.67 349.47 217.39 351.88C221.72 354.69 226.75 356.44 231.28 359.01C234.21 360.66 236.22 362.8 239.58 363.54C236.18 365.47 229.17 360.8 226.12 359.06C219.57 355.33 212.93 351.35 206.3 348.02C204.48 347.1 202.31 344.65 200.26 344.33C198.9 344.12 197.96 345.23 196.66 345.31C196.33 344.55 196.01 343.79 195.68 343.03C193.9 344.05 192.5 344.65 190.39 344.37C190.16 343.44 189.94 342.5 189.71 341.57C188.91 341.57 188.11 341.57 187.31 341.57C187.5 341.16 188.11 340.5 187.59 340.1C186.66 339.37 184.79 339.55 183.76 338.75C182.05 337.42 181.9 334.99 179.78 333.99C179.01 334.32 178.23 334.65 177.45 334.98C176.67 334.46 175.89 333.95 175.11 333.43C173.18 333.65 171.25 333.87 169.32 334.09C168.75 333.32 168.19 332.55 167.63 331.79C165.58 331.84 162.99 329.46 161.48 330.81C163.1 334.05 171.68 338.79 174.95 341.03C187.56 349.67 200.04 358.83 212.5 367.53C215.89 369.9 223.45 372.14 225.69 375.7C223.39 376.04 220.14 373.75 218.3 372.43C217.81 372.51 217.31 372.58 216.81 372.66C202.24 364.97 189.18 354.35 175.21 345.42C172.5 343.68 161.79 335.22 159.91 335.09C159.27 332.48 148.45 326.32 146.01 324C135.5 313.99 123.13 305.4 113.52 294.42C110.87 291.4 107 287.92 105.34 284.29C106.11 283.74 106.88 283.2 107.65 282.65C106.05 281.13 105.51 280.45 105.35 278.44C104.75 277.9 104.16 277.35 103.57 276.81C103.21 275.6 101.56 271.2 101.52 270.48C101.36 267.52 100.69 257.59 101.16 255.15C101.29 254.46 101.97 254.07 102.07 253.19C102.33 250.99 101.33 248.76 101.55 246.74C101.86 243.96 103.71 241.6 104.5 238.93C105.75 239.4 107 239.87 108.24 240.34C109.02 239.87 109.8 239.4 110.58 238.93C113.58 239.53 114.73 239.44 116.66 237.06C116.97 238 117.28 238.93 117.6 239.87C120.15 238.27 120.37 237.01 121.57 234.49C122.51 234.49 123.44 234.49 124.38 234.49C123.89 236.12 122.01 237.14 121.19 238.79C120.65 239.87 120.89 241.41 120.08 242.35C119.16 243.42 117.47 245.3 116.98 246.74C116.22 248.95 116.33 250.02 114.56 251.79C115.6 255.2 114.42 260.17 115.04 263.93C115.33 265.72 116.92 266.96 117.27 268.71C117.58 270.24 117.15 271.16 118.3 272.37C120.37 270.16 116.33 266.43 116.93 263.48C117.39 261.22 116.99 258.99 117.37 256.7C118.18 251.82 120.63 246.4 123.51 242.26C126.34 238.18 130.03 235.05 133.72 231.66C140.05 225.84 145.98 219.58 152.55 214.02C156.01 211.09 165.42 204.72 167.06 201.19C171.27 197.76 175.48 194.33 179.69 190.9C183.14 189.82 191.02 182.07 194.56 179.58C201.12 174.96 207.02 168.95 213.73 164.61C220.85 160.01 230.05 155.09 234.96 147.76C236.99 147.31 239.1 145.47 240.34 143.78C242.67 143.78 246.68 140.83 248.05 138.87C250.51 138.91 260.39 134.29 260.91 132.56C258.81 132.64 256.7 132.71 254.6 132.79C253.34 134.05 252.55 134.53 250.86 133.73C250.86 131.36 251.24 128.76 250.16 126.48C250.7 125.62 251.25 124.77 251.79 123.91C254.36 123.91 256.05 122.51 258.35 122.05C260.22 121.68 262.51 122.04 264.42 122.04C271.57 122.04 272.38 121.68 277.51 127.18C278.26 128.58 279.03 130.08 278.54 131.62C279.65 131.63 281.06 131.45 280.88 132.56C281.07 131.46 281.27 130.37 281.47 129.27ZM198.77 175.34C198.68 175.14 198.58 174.93 198.49 174.72C197.97 174.8 197.45 174.87 196.93 174.94C197.76 174.03 199.08 173.59 200.11 172.76C203.49 170.01 206.6 166.82 209.96 164.37C213.53 161.76 217.61 159.85 221.15 157.33C223.36 155.75 227.44 150.6 230.05 150.33C230.51 151.87 224.36 156.33 222.87 157.18C214.21 162.15 206.62 169.38 198.77 175.34ZM189.14 163.19C189.35 164.8 188.85 164.95 187.27 165.06C186.87 166.88 186.54 167.06 184.69 166.69C186.17 165.52 187.66 164.35 189.14 163.19ZM180 189.76C179.93 189.56 179.86 189.36 179.78 189.16C179.55 189.06 179.32 188.97 179.08 188.87C180.25 187.63 181.42 186.4 182.59 185.16C183.84 184.38 185.08 183.6 186.33 182.82C186.33 183.45 186.33 184.07 186.33 184.69C184.22 186.38 182.11 188.07 180 189.76ZM150.15 188.75C150.3 189.11 150.44 189.48 150.58 189.84C149.76 190.54 148.94 191.24 148.13 191.94C148.08 192.49 148.03 193.03 147.99 193.58C147.44 193.45 146.9 193.31 146.35 193.18C146.2 193.08 146.04 192.98 145.88 192.88C145.83 192.72 145.78 192.57 145.73 192.41C147.2 191.19 148.68 189.97 150.15 188.75ZM157.81 206.2C159.23 208.1 155.59 210.23 154.07 209.94C155.31 208.7 156.56 207.45 157.81 206.2ZM147.05 210.08C147.91 210.08 148.77 210.08 149.63 210.08C148.82 212.34 147.1 216.12 144.25 215.09C145.18 213.42 146.12 211.75 147.05 210.08ZM132.56 210.41C134.01 212.35 131.49 212.25 130.47 213C129.46 213.74 129.78 214.53 128.35 215.09C128.54 213.22 130.92 211.44 132.56 210.41ZM144.25 215.55C144.56 217.89 139.47 222.34 137 221.87C137.5 219.53 140.04 219 141.59 217.57C142.11 217.09 141.9 216.02 142.48 215.66C142.9 215.39 143.77 215.56 144.25 215.55ZM136.77 225.84C137 227.58 133.23 230.86 131.62 231.92C131.66 229.76 134.84 226.81 136.77 225.84ZM97.76 245.85C97.76 252.31 97.77 258.77 97.77 265.23C96.17 262.13 95.91 248.76 97.76 245.85ZM100.45 253.82C100.48 254.39 100.5 254.96 100.53 255.53C100.35 257.5 100.17 259.47 99.98 261.43C99.88 261.43 99.78 261.43 99.67 261.43C99.49 261.18 99.31 260.93 99.13 260.68C98.97 259.43 98.82 258.18 98.66 256.94C98.69 256.22 98.71 255.51 98.74 254.8C98.95 255.46 99.15 256.12 99.36 256.78C99.72 255.8 100.09 254.81 100.45 253.82Z" fill="#fef146" fill-rule="evenodd" stroke="#fef146" stroke-width="0.25" stroke-linejoin="round"/>
<path d="M281.47 129.27C281.27 130.37 281.07 131.46 280.88 132.56C281.06 131.45 279.65 131.63 278.54 131.62C279.03 130.08 278.26 128.58 277.51 127.18C272.38 121.68 271.57 122.04 264.42 122.04C262.51 122.04 260.22 121.68 258.35 122.05C256.05 122.51 254.36 123.91 251.79 123.91C251.25 124.77 250.7 125.62 250.16 126.48C251.24 128.76 250.86 131.36 250.86 133.73C252.55 134.53 253.34 134.05 254.6 132.79C256.7 132.71 258.81 132.64 260.91 132.56C260.39 134.29 250.51 138.91 248.05 138.87C246.68 140.83 242.67 143.78 240.34 143.78C239.1 145.47 236.99 147.31 234.96 147.76C230.05 155.09 220.85 160.01 213.73 164.61C207.02 168.95 201.12 174.96 194.56 179.58C191.02 182.07 183.14 189.82 179.69 190.9C179.79 190.52 179.89 190.14 180 189.76C182.11 188.07 184.22 186.38 186.33 184.69C186.33 184.07 186.33 183.45 186.33 182.82C185.08 183.6 183.84 184.38 182.59 185.16C181.42 186.4 180.25 187.63 179.08 188.87C176.32 189.71 167.33 198.68 164.73 200.97C162.97 202.53 159.99 203.85 159.21 206.2C161.24 204.64 163.26 203.09 165.29 201.53C165.88 201.41 166.47 201.3 167.06 201.19C165.42 204.72 156.01 211.09 152.55 214.02C145.98 219.58 140.05 225.84 133.72 231.66C130.03 235.05 126.34 238.18 123.51 242.26C120.63 246.4 118.18 251.82 117.37 256.7C116.99 258.99 117.39 261.22 116.93 263.48C116.33 266.43 120.37 270.16 118.3 272.37C117.15 271.16 117.58 270.24 117.27 268.71C116.92 266.96 115.33 265.72 115.04 263.93C114.42 260.17 115.6 255.2 114.56 251.79C116.33 250.02 116.22 248.95 116.98 246.74C117.47 245.3 119.16 243.42 120.08 242.35C120.89 241.41 120.65 239.87 121.19 238.79C122.01 237.14 123.89 236.12 124.38 234.49C123.44 234.49 122.51 234.49 121.57 234.49C120.37 237.01 120.15 238.27 117.6 239.87C117.28 238.93 116.97 238 116.66 237.06C114.73 239.44 113.58 239.53 110.58 238.93C109.8 239.4 109.02 239.87 108.24 240.34C107 239.87 105.75 239.4 104.5 238.93C103.71 241.6 101.86 243.96 101.55 246.74C101.33 248.76 102.33 250.99 102.07 253.19C101.97 254.07 101.29 254.46 101.16 255.15C100.69 257.59 101.36 267.52 101.52 270.48C101.56 271.2 103.21 275.6 103.57 276.81C104.16 277.35 104.75 277.9 105.35 278.44C105.51 280.45 106.05 281.13 107.65 282.65C106.88 283.2 106.11 283.74 105.34 284.29C104.3 282.44 101.86 279.85 102.63 277.74C101.18 278.62 100.11 276.16 100.76 274.94C98.08 272.75 98.37 268.45 97.77 265.23C97.77 258.77 97.76 252.31 97.76 245.85C98.84 242.22 99.92 238.59 101 234.96C103.12 234.11 104.78 230.14 106.54 228.35C111.67 223.1 117.37 218.6 122.79 213.67C124.55 212.06 128.18 207.4 130.45 207.37C131.95 203.21 138.39 199.28 141.67 196.26C142.82 195.19 144.38 193.22 145.88 192.88C146.04 192.98 146.2 193.08 146.35 193.18C146.2 193.86 146.04 194.54 145.88 195.21C142.8 195.26 142.56 198.87 140.42 200.5C139.66 201.08 138.62 200.73 137.7 201.06C135.5 203.77 130.38 207 129.52 210.18C127.37 210.64 126.22 211.24 125.78 213.45C121.58 216.71 116.53 219.21 114.79 224.44C116.21 223.69 115.78 222.75 116.68 221.65C117.25 220.94 121.26 218.02 122.36 217.04C123.48 216.06 124.89 215.51 126.01 214.62C130.84 210.79 134.77 205.46 139.82 201.78C142.86 199.56 146.67 196.77 148.46 193.44C150.07 193.94 152.41 191.03 153.6 189.84C152.24 189.16 151.83 188.98 150.58 189.84C150.44 189.48 150.3 189.11 150.15 188.75C157.19 182.12 165.01 176.35 172.62 170.45C175.01 168.6 178.84 163.83 181.89 164.03C181.11 165.23 180.33 166.43 179.55 167.63C183.76 166.22 190.17 160.93 193.81 158.04C195.05 157.06 198.52 154.75 197.08 153.37C194.92 154.5 193.35 158.6 190.54 157.57C189.14 159.3 187.78 159.39 187.27 161.78C185.46 161.22 184.5 162.41 183.76 163.89C183.26 163.81 182.76 163.73 182.26 163.65C181.91 162.24 185.83 160.1 186.99 159.16C190.12 156.67 202 147 205.03 146.82C204.87 145.73 206.88 144.02 207.68 144.21C207.5 144.69 207.32 145.17 207.14 145.65C207.53 146.2 207.92 146.74 208.31 147.29C210.1 145.88 211.89 144.48 213.68 143.08C220.39 139.11 227.09 135.13 233.79 131.16C233.32 130.69 232.85 130.22 232.39 129.75C231.53 130.14 230.67 130.53 229.82 130.92C229.66 131.55 229.5 132.17 229.35 132.79C227.25 131.85 226.3 132.33 225.61 134.66C223.42 133.09 223.58 135.3 222.09 136.28C220.45 137.36 219.57 136.56 219.53 138.87C218.75 138.87 217.97 138.87 217.19 138.87C216.02 139.57 214.85 140.27 213.68 140.98C213.68 141.68 213.68 142.38 213.68 143.08C213.29 143.24 212.9 143.39 212.52 143.55C212.2 143.08 211.89 142.61 211.58 142.14C211.3 142.3 211.03 142.46 210.75 142.61C210.4 140.87 214.25 139.48 215.49 138.58C219.42 135.73 223.67 133.3 227.85 130.83C229.46 129.88 231.42 128.07 233.32 128.35C234.88 127.3 236.44 126.25 238 125.2C237.84 126.25 237.69 127.3 237.53 128.35C239.39 127.73 248.84 123.74 248.99 122.51C248.05 122.51 247.12 122.51 246.18 122.51C245.56 123.13 244.93 123.75 244.31 124.38C243.38 124.53 242.44 124.69 241.51 124.84C241.12 124.55 240.73 124.26 240.34 123.96C242.89 121.59 246.89 121.25 250.07 120.34C260.46 117.37 278.2 115.77 281.47 129.27ZM268.39 120.78C266.62 119.85 256.22 119.54 254.36 120.78C259.04 120.78 263.72 120.78 268.39 120.78ZM205.05 147.29C204.18 148.13 202.03 148.91 201.31 150.11C201.06 150.52 201.14 151.1 200.72 151.39C199.66 152.16 197.96 152.27 199.42 153.83C201.3 152.51 203.18 151.18 205.05 149.86C205.05 149 205.05 148.14 205.05 147.29ZM196.93 174.94C195.97 175.78 195.01 176.61 194.05 177.45C195.58 178.64 197.45 176.39 198.77 175.34C206.62 169.38 214.21 162.15 222.87 157.18C224.36 156.33 230.51 151.87 230.05 150.33C227.44 150.6 223.36 155.75 221.15 157.33C217.61 159.85 213.53 161.76 209.96 164.37C206.6 166.82 203.49 170.01 200.11 172.76C199.08 173.59 197.76 174.03 196.93 174.94ZM189.14 163.19C187.66 164.35 186.17 165.52 184.69 166.69C186.54 167.06 186.87 166.88 187.27 165.06C188.85 164.95 189.35 164.8 189.14 163.19ZM173.24 173C172.55 172.75 169.57 173.79 169.04 174.42C168.74 174.78 168.92 175.55 168.47 175.8C168.14 175.98 167.15 175.6 166.53 175.81C166.53 176.59 166.53 177.37 166.53 178.15C164.6 178.7 163.42 179.18 163.42 181.42C166.69 178.62 169.97 175.81 173.24 173ZM155.91 184.23C155.91 185.47 155.91 186.72 155.91 187.97C156.94 187.11 157.96 186.25 158.98 185.4C157.96 185.01 156.94 184.62 155.91 184.23ZM179.69 190.9C175.48 194.33 171.27 197.76 167.06 201.19C167.74 198.79 177.23 191.19 179.69 190.9ZM157.81 206.2C156.56 207.45 155.31 208.7 154.07 209.94C155.59 210.23 159.23 208.1 157.81 206.2ZM147.05 210.08C146.12 211.75 145.18 213.42 144.25 215.09C147.1 216.12 148.82 212.34 149.63 210.08C148.77 210.08 147.91 210.08 147.05 210.08ZM132.56 210.41C130.92 211.44 128.54 213.22 128.35 215.09C129.78 214.53 129.46 213.74 130.47 213C131.49 212.25 134.01 212.35 132.56 210.41ZM144.25 215.55C143.77 215.56 142.9 215.39 142.48 215.66C141.9 216.02 142.11 217.09 141.59 217.57C140.04 219 137.5 219.53 137 221.87C139.47 222.34 144.56 217.89 144.25 215.55ZM111.99 226.78C111.44 226.54 110.89 226.31 110.35 226.07C109.69 226.85 109.02 227.63 108.36 228.41C108.36 229.11 108.36 229.82 108.36 230.52C109.57 229.27 110.78 228.02 111.99 226.78ZM136.77 225.84C134.84 226.81 131.66 229.76 131.62 231.92C133.23 230.86 137 227.58 136.77 225.84ZM98.74 254.8C98.71 255.51 98.69 256.22 98.66 256.94C98.82 258.18 98.97 259.43 99.13 260.68C99.31 260.93 99.49 261.18 99.67 261.43C99.16 264.62 99.65 267.96 100.3 271.2C100.19 267.94 100.09 264.69 99.98 261.43C100.17 259.47 100.35 257.5 100.53 255.53C100.5 254.96 100.48 254.39 100.45 253.82C100.7 250.36 100.41 246.85 101.08 243.46C101.71 240.35 104.55 239.06 102.63 236.13C101.98 236.99 102.46 237.65 101.86 238.63C98.81 243.62 98.33 248.81 98.74 254.8Z" fill="#f9f48a" fill-rule="evenodd" stroke="#f9f48a" stroke-width="0.25" stroke-linejoin="round"/>
<path d="M238 125.2C238.23 125.24 238.47 125.29 238.7 125.34C239.01 124.86 239.32 124.38 239.63 123.91C239.87 123.93 240.1 123.94 240.34 123.96C240.73 124.26 241.12 124.55 241.51 124.84C242.44 124.69 243.38 124.53 244.31 124.38C244.93 123.75 245.56 123.13 246.18 122.51C247.12 122.51 248.05 122.51 248.99 122.51C248.84 123.74 239.39 127.73 237.53 128.35C237.69 127.3 237.84 126.25 238 125.2ZM213.68 143.08C213.68 142.38 213.68 141.68 213.68 140.98C214.85 140.27 216.02 139.57 217.19 138.87C217.97 138.87 218.75 138.87 219.53 138.87C219.57 136.56 220.45 137.36 222.09 136.28C223.58 135.3 223.42 133.09 225.61 134.66C226.3 132.33 227.25 131.85 229.35 132.79C229.5 132.17 229.66 131.55 229.82 130.92C230.67 130.53 231.53 130.14 232.39 129.75C232.85 130.22 233.32 130.69 233.79 131.16C227.09 135.13 220.39 139.11 213.68 143.08ZM213.68 143.08C211.89 144.48 210.1 145.88 208.31 147.29C207.92 146.74 207.53 146.2 207.14 145.65C207.32 145.17 207.5 144.69 207.68 144.21C207.89 143.83 208.1 143.46 208.31 143.08C208.77 143.39 209.24 143.7 209.71 144.01C210.02 143.51 210.33 143 210.64 142.5C210.68 142.54 210.72 142.57 210.75 142.61C211.03 142.46 211.3 142.3 211.58 142.14C211.89 142.61 212.2 143.08 212.52 143.55C212.9 143.39 213.29 143.24 213.68 143.08ZM205.05 147.29C205.05 148.14 205.05 149 205.05 149.86C203.18 151.18 201.3 152.51 199.42 153.83C197.96 152.27 199.66 152.16 200.72 151.39C201.14 151.1 201.06 150.52 201.31 150.11C202.03 148.91 204.18 148.13 205.05 147.29ZM181.89 164.03C182.01 163.9 182.14 163.78 182.26 163.65C182.76 163.73 183.26 163.81 183.76 163.89C184.5 162.41 185.46 161.22 187.27 161.78C187.78 159.39 189.14 159.3 190.54 157.57C193.35 158.6 194.92 154.5 197.08 153.37C198.52 154.75 195.05 157.06 193.81 158.04C190.17 160.93 183.76 166.22 179.55 167.63C180.33 166.43 181.11 165.23 181.89 164.03ZM173.24 173C169.97 175.81 166.69 178.62 163.42 181.42C163.42 179.18 164.6 178.7 166.53 178.15C166.53 177.37 166.53 176.59 166.53 175.81C167.15 175.6 168.14 175.98 168.47 175.8C168.92 175.55 168.74 174.78 169.04 174.42C169.57 173.79 172.55 172.75 173.24 173ZM196.93 174.94C197.45 174.87 197.97 174.8 198.49 174.72C198.58 174.93 198.68 175.14 198.77 175.34C197.45 176.39 195.58 178.64 194.05 177.45C195.01 176.61 195.97 175.78 196.93 174.94ZM155.91 184.23C156.94 184.62 157.96 185.01 158.98 185.4C157.96 186.25 156.94 187.11 155.91 187.97C155.91 186.72 155.91 185.47 155.91 184.23ZM146.35 193.18C146.9 193.31 147.44 193.45 147.99 193.58C148.03 193.03 148.08 192.49 148.13 191.94C148.94 191.24 149.76 190.54 150.58 189.84C151.83 188.98 152.24 189.16 153.6 189.84C152.41 191.03 150.07 193.94 148.46 193.44C146.67 196.77 142.86 199.56 139.82 201.78C134.77 205.46 130.84 210.79 126.01 214.62C124.89 215.51 123.48 216.06 122.36 217.04C121.26 218.02 117.25 220.94 116.68 221.65C115.78 222.75 116.21 223.69 114.79 224.44C116.53 219.21 121.58 216.71 125.78 213.45C126.22 211.24 127.37 210.64 129.52 210.18C130.38 207 135.5 203.77 137.7 201.06C138.62 200.73 139.66 201.08 140.42 200.5C142.56 198.87 142.8 195.26 145.88 195.21C146.04 194.54 146.2 193.86 146.35 193.18ZM179.08 188.87C179.32 188.97 179.55 189.06 179.78 189.16C179.86 189.36 179.93 189.56 180 189.76C179.89 190.14 179.79 190.52 179.69 190.9C177.23 191.19 167.74 198.79 167.06 201.19C166.47 201.3 165.88 201.41 165.29 201.53C163.26 203.09 161.24 204.64 159.21 206.2C159.99 203.85 162.97 202.53 164.73 200.97C167.33 198.68 176.32 189.71 179.08 188.87ZM111.99 226.78C110.78 228.02 109.57 229.27 108.36 230.52C108.36 229.82 108.36 229.11 108.36 228.41C109.02 227.63 109.69 226.85 110.35 226.07C110.89 226.31 111.44 226.54 111.99 226.78ZM100.45 253.82C100.09 254.81 99.72 255.8 99.36 256.78C99.15 256.12 98.95 255.46 98.74 254.8C98.33 248.81 98.81 243.62 101.86 238.63C102.46 237.65 101.98 236.99 102.63 236.13C104.55 239.06 101.71 240.35 101.08 243.46C100.41 246.85 100.7 250.36 100.45 253.82ZM99.67 261.43C99.78 261.43 99.88 261.43 99.98 261.43C100.09 264.69 100.19 267.94 100.3 271.2C99.65 267.96 99.16 264.62 99.67 261.43Z" fill="#ffffff" fill-rule="evenodd" stroke="#ffffff" stroke-width="0.25" stroke-linejoin="round"/>
</svg>